M48
; DRILL file {KiCad 7.0.7} date Wed 27 Sep 2023 19:22:42 BST
; FORMAT={-:-/ absolute / inch / decimal}
; #@! TF.CreationDate,2023-09-27T19:22:42+01:00
; #@! TF.GenerationSoftware,Kicad,Pcbnew,7.0.7
; #@! TF.FileFunction,Plated,1,2,PTH
FMAT,2
INCH
; #@! TA.AperFunction,Plated,PTH,ViaDrill
T1C0.0157
; #@! TA.AperFunction,Plated,PTH,ComponentDrill
T2C0.0320
; #@! TA.AperFunction,Plated,PTH,ComponentDrill
T3C0.0394
; #@! TA.AperFunction,Plated,PTH,ComponentDrill
T4C0.0500
; #@! TA.AperFunction,Plated,PTH,ComponentDrill
T5C0.0512
%
G90
G05
T1
X6.559Y-3.1657
X6.5976Y-3.2093
X6.709Y-3.1057
X6.929Y-4.2857
X7.129Y-4.4157
T2
X6.7469Y-3.2102
X6.7469Y-3.3102
X6.7469Y-3.4102
X6.7469Y-3.5102
X6.7469Y-3.6102
X6.7469Y-3.7102
X6.7469Y-3.8102
X6.7469Y-3.9102
X6.7469Y-4.0102
X6.7469Y-4.1102
X6.7469Y-4.2102
X6.7469Y-4.3102
X7.3461Y-3.2102
X7.3461Y-3.3102
X7.3461Y-3.4102
X7.3461Y-3.5102
X7.3461Y-3.6102
X7.3461Y-3.7102
X7.3461Y-3.8102
X7.3461Y-3.9102
X7.3461Y-4.0102
X7.3461Y-4.1102
X7.3461Y-4.2102
X7.3461Y-4.3102
T4
X3.2944Y-3.3735
X3.2944Y-4.0428
X3.2944Y-4.7122
X3.4913Y-3.4561
X3.4913Y-4.1254
X3.4913Y-4.7949
X3.6881Y-3.3735
X3.6881Y-4.0428
X3.6881Y-4.7122
X4.0031Y-2.892
X4.0031Y-3.5613
X4.0031Y-4.2307
X4.1999Y-2.9746
X4.1999Y-3.6439
X4.1999Y-4.3134
X4.3968Y-2.892
X4.3968Y-3.5613
X4.3968Y-4.2307
X4.7118Y-2.6239
X4.7118Y-3.2928
X4.7118Y-3.962
X4.9086Y-2.7065
X4.9086Y-3.3754
X4.9086Y-4.0447
X5.1055Y-2.6239
X5.1055Y-3.2928
X5.1055Y-3.962
X5.4204Y-2.8447
X5.4204Y-3.514
X5.4204Y-4.1835
X5.6173Y-2.9274
X5.6173Y-3.5967
X5.6173Y-4.2662
X5.8141Y-2.8447
X5.8141Y-3.514
X5.8141Y-4.1835
X5.8572Y-4.6426
X6.0687Y-4.6137
X6.1291Y-2.9384
X6.1291Y-3.6077
X6.1291Y-4.277
X6.2375Y-4.7445
X6.3259Y-3.0211
X6.3259Y-3.6904
X6.3259Y-4.3597
X6.5228Y-2.9384
X6.5228Y-3.6077
X6.5228Y-4.277
X6.6436Y-4.9136
X6.8555Y-4.9404
X6.9846Y-5.1104
T5
X6.7578Y-4.4687
X6.7578Y-4.7246
T3
G00X6.8956Y-4.5707
M15
G01X6.8759Y-4.5707
M16
G05
G00X6.8956Y-4.6672
M15
G01X6.8759Y-4.6672
M16
G05
G00X6.9547Y-4.5018
M15
G01X6.935Y-4.5018
M16
G05
G00X6.9547Y-4.7361
M15
G01X6.935Y-4.7361
M16
G05
G00X7.1121Y-4.5018
M15
G01X7.0925Y-4.5018
M16
G05
G00X7.1121Y-4.7361
M15
G01X7.0925Y-4.7361
M16
G05
G00X7.2303Y-4.5018
M15
G01X7.2106Y-4.5018
M16
G05
G00X7.2303Y-4.7361
M15
G01X7.2106Y-4.7361
M16
G05
T0
M30
