G04 #@! TF.GenerationSoftware,KiCad,Pcbnew,7.0.7*
G04 #@! TF.CreationDate,2023-09-27T19:23:00+01:00*
G04 #@! TF.ProjectId,ferris-sweep-compact,66657272-6973-42d7-9377-6565702d636f,0.1*
G04 #@! TF.SameCoordinates,Original*
G04 #@! TF.FileFunction,Legend,Bot*
G04 #@! TF.FilePolarity,Positive*
%FSLAX46Y46*%
G04 Gerber Fmt 4.6, Leading zero omitted, Abs format (unit mm)*
G04 Created by KiCad (PCBNEW 7.0.7) date 2023-09-27 19:23:00*
%MOMM*%
%LPD*%
G01*
G04 APERTURE LIST*
%ADD10C,0.300000*%
%ADD11C,0.125000*%
%ADD12C,0.150000*%
%ADD13C,2.101800*%
%ADD14C,1.390600*%
%ADD15C,3.829000*%
%ADD16C,2.432000*%
%ADD17C,1.924000*%
%ADD18C,2.400000*%
%ADD19C,1.600000*%
%ADD20O,2.900000X2.100000*%
G04 APERTURE END LIST*
D10*
X179072071Y-87202572D02*
X179143500Y-87131144D01*
X179143500Y-87131144D02*
X179214928Y-86916858D01*
X179214928Y-86916858D02*
X179214928Y-86774001D01*
X179214928Y-86774001D02*
X179143500Y-86559715D01*
X179143500Y-86559715D02*
X179000642Y-86416858D01*
X179000642Y-86416858D02*
X178857785Y-86345429D01*
X178857785Y-86345429D02*
X178572071Y-86274001D01*
X178572071Y-86274001D02*
X178357785Y-86274001D01*
X178357785Y-86274001D02*
X178072071Y-86345429D01*
X178072071Y-86345429D02*
X177929214Y-86416858D01*
X177929214Y-86416858D02*
X177786357Y-86559715D01*
X177786357Y-86559715D02*
X177714928Y-86774001D01*
X177714928Y-86774001D02*
X177714928Y-86916858D01*
X177714928Y-86916858D02*
X177786357Y-87131144D01*
X177786357Y-87131144D02*
X177857785Y-87202572D01*
X179214928Y-88059715D02*
X179143500Y-87916858D01*
X179143500Y-87916858D02*
X179072071Y-87845429D01*
X179072071Y-87845429D02*
X178929214Y-87774001D01*
X178929214Y-87774001D02*
X178500642Y-87774001D01*
X178500642Y-87774001D02*
X178357785Y-87845429D01*
X178357785Y-87845429D02*
X178286357Y-87916858D01*
X178286357Y-87916858D02*
X178214928Y-88059715D01*
X178214928Y-88059715D02*
X178214928Y-88274001D01*
X178214928Y-88274001D02*
X178286357Y-88416858D01*
X178286357Y-88416858D02*
X178357785Y-88488287D01*
X178357785Y-88488287D02*
X178500642Y-88559715D01*
X178500642Y-88559715D02*
X178929214Y-88559715D01*
X178929214Y-88559715D02*
X179072071Y-88488287D01*
X179072071Y-88488287D02*
X179143500Y-88416858D01*
X179143500Y-88416858D02*
X179214928Y-88274001D01*
X179214928Y-88274001D02*
X179214928Y-88059715D01*
X178214928Y-89202572D02*
X179214928Y-89202572D01*
X178357785Y-89202572D02*
X178286357Y-89274001D01*
X178286357Y-89274001D02*
X178214928Y-89416858D01*
X178214928Y-89416858D02*
X178214928Y-89631144D01*
X178214928Y-89631144D02*
X178286357Y-89774001D01*
X178286357Y-89774001D02*
X178429214Y-89845430D01*
X178429214Y-89845430D02*
X179214928Y-89845430D01*
X178214928Y-90345430D02*
X178214928Y-90916858D01*
X177714928Y-90559715D02*
X179000642Y-90559715D01*
X179000642Y-90559715D02*
X179143500Y-90631144D01*
X179143500Y-90631144D02*
X179214928Y-90774001D01*
X179214928Y-90774001D02*
X179214928Y-90916858D01*
X179214928Y-91416858D02*
X178214928Y-91416858D01*
X178500642Y-91416858D02*
X178357785Y-91488287D01*
X178357785Y-91488287D02*
X178286357Y-91559716D01*
X178286357Y-91559716D02*
X178214928Y-91702573D01*
X178214928Y-91702573D02*
X178214928Y-91845430D01*
X179214928Y-92559715D02*
X179143500Y-92416858D01*
X179143500Y-92416858D02*
X179072071Y-92345429D01*
X179072071Y-92345429D02*
X178929214Y-92274001D01*
X178929214Y-92274001D02*
X178500642Y-92274001D01*
X178500642Y-92274001D02*
X178357785Y-92345429D01*
X178357785Y-92345429D02*
X178286357Y-92416858D01*
X178286357Y-92416858D02*
X178214928Y-92559715D01*
X178214928Y-92559715D02*
X178214928Y-92774001D01*
X178214928Y-92774001D02*
X178286357Y-92916858D01*
X178286357Y-92916858D02*
X178357785Y-92988287D01*
X178357785Y-92988287D02*
X178500642Y-93059715D01*
X178500642Y-93059715D02*
X178929214Y-93059715D01*
X178929214Y-93059715D02*
X179072071Y-92988287D01*
X179072071Y-92988287D02*
X179143500Y-92916858D01*
X179143500Y-92916858D02*
X179214928Y-92774001D01*
X179214928Y-92774001D02*
X179214928Y-92559715D01*
X179214928Y-93916858D02*
X179143500Y-93774001D01*
X179143500Y-93774001D02*
X179000642Y-93702572D01*
X179000642Y-93702572D02*
X177714928Y-93702572D01*
X179214928Y-94702572D02*
X179143500Y-94559715D01*
X179143500Y-94559715D02*
X179000642Y-94488286D01*
X179000642Y-94488286D02*
X177714928Y-94488286D01*
X179143500Y-95845429D02*
X179214928Y-95702572D01*
X179214928Y-95702572D02*
X179214928Y-95416858D01*
X179214928Y-95416858D02*
X179143500Y-95274000D01*
X179143500Y-95274000D02*
X179000642Y-95202572D01*
X179000642Y-95202572D02*
X178429214Y-95202572D01*
X178429214Y-95202572D02*
X178286357Y-95274000D01*
X178286357Y-95274000D02*
X178214928Y-95416858D01*
X178214928Y-95416858D02*
X178214928Y-95702572D01*
X178214928Y-95702572D02*
X178286357Y-95845429D01*
X178286357Y-95845429D02*
X178429214Y-95916858D01*
X178429214Y-95916858D02*
X178572071Y-95916858D01*
X178572071Y-95916858D02*
X178714928Y-95202572D01*
X179214928Y-96559714D02*
X178214928Y-96559714D01*
X178500642Y-96559714D02*
X178357785Y-96631143D01*
X178357785Y-96631143D02*
X178286357Y-96702572D01*
X178286357Y-96702572D02*
X178214928Y-96845429D01*
X178214928Y-96845429D02*
X178214928Y-96988286D01*
X178429214Y-99131142D02*
X178429214Y-98631142D01*
X179214928Y-98631142D02*
X177714928Y-98631142D01*
X177714928Y-98631142D02*
X177714928Y-99345428D01*
X179214928Y-100559714D02*
X178429214Y-100559714D01*
X178429214Y-100559714D02*
X178286357Y-100488285D01*
X178286357Y-100488285D02*
X178214928Y-100345428D01*
X178214928Y-100345428D02*
X178214928Y-100059714D01*
X178214928Y-100059714D02*
X178286357Y-99916856D01*
X179143500Y-100559714D02*
X179214928Y-100416856D01*
X179214928Y-100416856D02*
X179214928Y-100059714D01*
X179214928Y-100059714D02*
X179143500Y-99916856D01*
X179143500Y-99916856D02*
X179000642Y-99845428D01*
X179000642Y-99845428D02*
X178857785Y-99845428D01*
X178857785Y-99845428D02*
X178714928Y-99916856D01*
X178714928Y-99916856D02*
X178643500Y-100059714D01*
X178643500Y-100059714D02*
X178643500Y-100416856D01*
X178643500Y-100416856D02*
X178572071Y-100559714D01*
X179143500Y-101916857D02*
X179214928Y-101773999D01*
X179214928Y-101773999D02*
X179214928Y-101488285D01*
X179214928Y-101488285D02*
X179143500Y-101345428D01*
X179143500Y-101345428D02*
X179072071Y-101273999D01*
X179072071Y-101273999D02*
X178929214Y-101202571D01*
X178929214Y-101202571D02*
X178500642Y-101202571D01*
X178500642Y-101202571D02*
X178357785Y-101273999D01*
X178357785Y-101273999D02*
X178286357Y-101345428D01*
X178286357Y-101345428D02*
X178214928Y-101488285D01*
X178214928Y-101488285D02*
X178214928Y-101773999D01*
X178214928Y-101773999D02*
X178286357Y-101916857D01*
X179143500Y-103131142D02*
X179214928Y-102988285D01*
X179214928Y-102988285D02*
X179214928Y-102702571D01*
X179214928Y-102702571D02*
X179143500Y-102559713D01*
X179143500Y-102559713D02*
X179000642Y-102488285D01*
X179000642Y-102488285D02*
X178429214Y-102488285D01*
X178429214Y-102488285D02*
X178286357Y-102559713D01*
X178286357Y-102559713D02*
X178214928Y-102702571D01*
X178214928Y-102702571D02*
X178214928Y-102988285D01*
X178214928Y-102988285D02*
X178286357Y-103131142D01*
X178286357Y-103131142D02*
X178429214Y-103202571D01*
X178429214Y-103202571D02*
X178572071Y-103202571D01*
X178572071Y-103202571D02*
X178714928Y-102488285D01*
X177714928Y-104988284D02*
X178929214Y-104988284D01*
X178929214Y-104988284D02*
X179072071Y-105059713D01*
X179072071Y-105059713D02*
X179143500Y-105131142D01*
X179143500Y-105131142D02*
X179214928Y-105273999D01*
X179214928Y-105273999D02*
X179214928Y-105559713D01*
X179214928Y-105559713D02*
X179143500Y-105702570D01*
X179143500Y-105702570D02*
X179072071Y-105773999D01*
X179072071Y-105773999D02*
X178929214Y-105845427D01*
X178929214Y-105845427D02*
X177714928Y-105845427D01*
X178214928Y-106559713D02*
X179714928Y-106559713D01*
X178286357Y-106559713D02*
X178214928Y-106702571D01*
X178214928Y-106702571D02*
X178214928Y-106988285D01*
X178214928Y-106988285D02*
X178286357Y-107131142D01*
X178286357Y-107131142D02*
X178357785Y-107202571D01*
X178357785Y-107202571D02*
X178500642Y-107273999D01*
X178500642Y-107273999D02*
X178929214Y-107273999D01*
X178929214Y-107273999D02*
X179072071Y-107202571D01*
X179072071Y-107202571D02*
X179143500Y-107131142D01*
X179143500Y-107131142D02*
X179214928Y-106988285D01*
X179214928Y-106988285D02*
X179214928Y-106702571D01*
X179214928Y-106702571D02*
X179143500Y-106559713D01*
D11*
X183476219Y-103397035D02*
X183500028Y-103432750D01*
X183500028Y-103432750D02*
X183571457Y-103468464D01*
X183571457Y-103468464D02*
X183619076Y-103468464D01*
X183619076Y-103468464D02*
X183690504Y-103432750D01*
X183690504Y-103432750D02*
X183738123Y-103361321D01*
X183738123Y-103361321D02*
X183761933Y-103289892D01*
X183761933Y-103289892D02*
X183785742Y-103147035D01*
X183785742Y-103147035D02*
X183785742Y-103039892D01*
X183785742Y-103039892D02*
X183761933Y-102897035D01*
X183761933Y-102897035D02*
X183738123Y-102825607D01*
X183738123Y-102825607D02*
X183690504Y-102754178D01*
X183690504Y-102754178D02*
X183619076Y-102718464D01*
X183619076Y-102718464D02*
X183571457Y-102718464D01*
X183571457Y-102718464D02*
X183500028Y-102754178D01*
X183500028Y-102754178D02*
X183476219Y-102789892D01*
X183166695Y-102718464D02*
X183071457Y-102718464D01*
X183071457Y-102718464D02*
X183023838Y-102754178D01*
X183023838Y-102754178D02*
X182976219Y-102825607D01*
X182976219Y-102825607D02*
X182952409Y-102968464D01*
X182952409Y-102968464D02*
X182952409Y-103218464D01*
X182952409Y-103218464D02*
X182976219Y-103361321D01*
X182976219Y-103361321D02*
X183023838Y-103432750D01*
X183023838Y-103432750D02*
X183071457Y-103468464D01*
X183071457Y-103468464D02*
X183166695Y-103468464D01*
X183166695Y-103468464D02*
X183214314Y-103432750D01*
X183214314Y-103432750D02*
X183261933Y-103361321D01*
X183261933Y-103361321D02*
X183285742Y-103218464D01*
X183285742Y-103218464D02*
X183285742Y-102968464D01*
X183285742Y-102968464D02*
X183261933Y-102825607D01*
X183261933Y-102825607D02*
X183214314Y-102754178D01*
X183214314Y-102754178D02*
X183166695Y-102718464D01*
X182500028Y-103468464D02*
X182738123Y-103468464D01*
X182738123Y-103468464D02*
X182738123Y-102718464D01*
X182119075Y-102968464D02*
X182119075Y-103468464D01*
X182238123Y-102682750D02*
X182357170Y-103218464D01*
X182357170Y-103218464D02*
X182047647Y-103218464D01*
X183526219Y-95840535D02*
X183550028Y-95876250D01*
X183550028Y-95876250D02*
X183621457Y-95911964D01*
X183621457Y-95911964D02*
X183669076Y-95911964D01*
X183669076Y-95911964D02*
X183740504Y-95876250D01*
X183740504Y-95876250D02*
X183788123Y-95804821D01*
X183788123Y-95804821D02*
X183811933Y-95733392D01*
X183811933Y-95733392D02*
X183835742Y-95590535D01*
X183835742Y-95590535D02*
X183835742Y-95483392D01*
X183835742Y-95483392D02*
X183811933Y-95340535D01*
X183811933Y-95340535D02*
X183788123Y-95269107D01*
X183788123Y-95269107D02*
X183740504Y-95197678D01*
X183740504Y-95197678D02*
X183669076Y-95161964D01*
X183669076Y-95161964D02*
X183621457Y-95161964D01*
X183621457Y-95161964D02*
X183550028Y-95197678D01*
X183550028Y-95197678D02*
X183526219Y-95233392D01*
X183216695Y-95161964D02*
X183121457Y-95161964D01*
X183121457Y-95161964D02*
X183073838Y-95197678D01*
X183073838Y-95197678D02*
X183026219Y-95269107D01*
X183026219Y-95269107D02*
X183002409Y-95411964D01*
X183002409Y-95411964D02*
X183002409Y-95661964D01*
X183002409Y-95661964D02*
X183026219Y-95804821D01*
X183026219Y-95804821D02*
X183073838Y-95876250D01*
X183073838Y-95876250D02*
X183121457Y-95911964D01*
X183121457Y-95911964D02*
X183216695Y-95911964D01*
X183216695Y-95911964D02*
X183264314Y-95876250D01*
X183264314Y-95876250D02*
X183311933Y-95804821D01*
X183311933Y-95804821D02*
X183335742Y-95661964D01*
X183335742Y-95661964D02*
X183335742Y-95411964D01*
X183335742Y-95411964D02*
X183311933Y-95269107D01*
X183311933Y-95269107D02*
X183264314Y-95197678D01*
X183264314Y-95197678D02*
X183216695Y-95161964D01*
X182550028Y-95911964D02*
X182788123Y-95911964D01*
X182788123Y-95911964D02*
X182788123Y-95161964D01*
X182121456Y-95911964D02*
X182407170Y-95911964D01*
X182264313Y-95911964D02*
X182264313Y-95161964D01*
X182264313Y-95161964D02*
X182311932Y-95269107D01*
X182311932Y-95269107D02*
X182359551Y-95340535D01*
X182359551Y-95340535D02*
X182407170Y-95376250D01*
X168251028Y-83211964D02*
X168489123Y-83211964D01*
X168489123Y-83211964D02*
X168489123Y-82461964D01*
X168084361Y-82819107D02*
X167917694Y-82819107D01*
X167846266Y-83211964D02*
X168084361Y-83211964D01*
X168084361Y-83211964D02*
X168084361Y-82461964D01*
X168084361Y-82461964D02*
X167846266Y-82461964D01*
X167631980Y-83211964D02*
X167631980Y-82461964D01*
X167631980Y-82461964D02*
X167512932Y-82461964D01*
X167512932Y-82461964D02*
X167441504Y-82497678D01*
X167441504Y-82497678D02*
X167393885Y-82569107D01*
X167393885Y-82569107D02*
X167370075Y-82640535D01*
X167370075Y-82640535D02*
X167346266Y-82783392D01*
X167346266Y-82783392D02*
X167346266Y-82890535D01*
X167346266Y-82890535D02*
X167370075Y-83033392D01*
X167370075Y-83033392D02*
X167393885Y-83104821D01*
X167393885Y-83104821D02*
X167441504Y-83176250D01*
X167441504Y-83176250D02*
X167512932Y-83211964D01*
X167512932Y-83211964D02*
X167631980Y-83211964D01*
X183526219Y-100885035D02*
X183550028Y-100920750D01*
X183550028Y-100920750D02*
X183621457Y-100956464D01*
X183621457Y-100956464D02*
X183669076Y-100956464D01*
X183669076Y-100956464D02*
X183740504Y-100920750D01*
X183740504Y-100920750D02*
X183788123Y-100849321D01*
X183788123Y-100849321D02*
X183811933Y-100777892D01*
X183811933Y-100777892D02*
X183835742Y-100635035D01*
X183835742Y-100635035D02*
X183835742Y-100527892D01*
X183835742Y-100527892D02*
X183811933Y-100385035D01*
X183811933Y-100385035D02*
X183788123Y-100313607D01*
X183788123Y-100313607D02*
X183740504Y-100242178D01*
X183740504Y-100242178D02*
X183669076Y-100206464D01*
X183669076Y-100206464D02*
X183621457Y-100206464D01*
X183621457Y-100206464D02*
X183550028Y-100242178D01*
X183550028Y-100242178D02*
X183526219Y-100277892D01*
X183216695Y-100206464D02*
X183121457Y-100206464D01*
X183121457Y-100206464D02*
X183073838Y-100242178D01*
X183073838Y-100242178D02*
X183026219Y-100313607D01*
X183026219Y-100313607D02*
X183002409Y-100456464D01*
X183002409Y-100456464D02*
X183002409Y-100706464D01*
X183002409Y-100706464D02*
X183026219Y-100849321D01*
X183026219Y-100849321D02*
X183073838Y-100920750D01*
X183073838Y-100920750D02*
X183121457Y-100956464D01*
X183121457Y-100956464D02*
X183216695Y-100956464D01*
X183216695Y-100956464D02*
X183264314Y-100920750D01*
X183264314Y-100920750D02*
X183311933Y-100849321D01*
X183311933Y-100849321D02*
X183335742Y-100706464D01*
X183335742Y-100706464D02*
X183335742Y-100456464D01*
X183335742Y-100456464D02*
X183311933Y-100313607D01*
X183311933Y-100313607D02*
X183264314Y-100242178D01*
X183264314Y-100242178D02*
X183216695Y-100206464D01*
X182550028Y-100956464D02*
X182788123Y-100956464D01*
X182788123Y-100956464D02*
X182788123Y-100206464D01*
X182430980Y-100206464D02*
X182121456Y-100206464D01*
X182121456Y-100206464D02*
X182288123Y-100492178D01*
X182288123Y-100492178D02*
X182216694Y-100492178D01*
X182216694Y-100492178D02*
X182169075Y-100527892D01*
X182169075Y-100527892D02*
X182145266Y-100563607D01*
X182145266Y-100563607D02*
X182121456Y-100635035D01*
X182121456Y-100635035D02*
X182121456Y-100813607D01*
X182121456Y-100813607D02*
X182145266Y-100885035D01*
X182145266Y-100885035D02*
X182169075Y-100920750D01*
X182169075Y-100920750D02*
X182216694Y-100956464D01*
X182216694Y-100956464D02*
X182359551Y-100956464D01*
X182359551Y-100956464D02*
X182407170Y-100920750D01*
X182407170Y-100920750D02*
X182430980Y-100885035D01*
X168528599Y-85856464D02*
X168528599Y-85106464D01*
X168528599Y-85106464D02*
X168409551Y-85106464D01*
X168409551Y-85106464D02*
X168338123Y-85142178D01*
X168338123Y-85142178D02*
X168290504Y-85213607D01*
X168290504Y-85213607D02*
X168266694Y-85285035D01*
X168266694Y-85285035D02*
X168242885Y-85427892D01*
X168242885Y-85427892D02*
X168242885Y-85535035D01*
X168242885Y-85535035D02*
X168266694Y-85677892D01*
X168266694Y-85677892D02*
X168290504Y-85749321D01*
X168290504Y-85749321D02*
X168338123Y-85820750D01*
X168338123Y-85820750D02*
X168409551Y-85856464D01*
X168409551Y-85856464D02*
X168528599Y-85856464D01*
X168052408Y-85642178D02*
X167814313Y-85642178D01*
X168100027Y-85856464D02*
X167933361Y-85106464D01*
X167933361Y-85106464D02*
X167766694Y-85856464D01*
X167671456Y-85106464D02*
X167385742Y-85106464D01*
X167528599Y-85856464D02*
X167528599Y-85106464D01*
X167242885Y-85642178D02*
X167004790Y-85642178D01*
X167290504Y-85856464D02*
X167123838Y-85106464D01*
X167123838Y-85106464D02*
X166957171Y-85856464D01*
X168131980Y-110759107D02*
X168060552Y-110794821D01*
X168060552Y-110794821D02*
X168036742Y-110830535D01*
X168036742Y-110830535D02*
X168012933Y-110901964D01*
X168012933Y-110901964D02*
X168012933Y-111009107D01*
X168012933Y-111009107D02*
X168036742Y-111080535D01*
X168036742Y-111080535D02*
X168060552Y-111116250D01*
X168060552Y-111116250D02*
X168108171Y-111151964D01*
X168108171Y-111151964D02*
X168298647Y-111151964D01*
X168298647Y-111151964D02*
X168298647Y-110401964D01*
X168298647Y-110401964D02*
X168131980Y-110401964D01*
X168131980Y-110401964D02*
X168084361Y-110437678D01*
X168084361Y-110437678D02*
X168060552Y-110473392D01*
X168060552Y-110473392D02*
X168036742Y-110544821D01*
X168036742Y-110544821D02*
X168036742Y-110616250D01*
X168036742Y-110616250D02*
X168060552Y-110687678D01*
X168060552Y-110687678D02*
X168084361Y-110723392D01*
X168084361Y-110723392D02*
X168131980Y-110759107D01*
X168131980Y-110759107D02*
X168298647Y-110759107D01*
X167560552Y-110401964D02*
X167798647Y-110401964D01*
X167798647Y-110401964D02*
X167822456Y-110759107D01*
X167822456Y-110759107D02*
X167798647Y-110723392D01*
X167798647Y-110723392D02*
X167751028Y-110687678D01*
X167751028Y-110687678D02*
X167631980Y-110687678D01*
X167631980Y-110687678D02*
X167584361Y-110723392D01*
X167584361Y-110723392D02*
X167560552Y-110759107D01*
X167560552Y-110759107D02*
X167536742Y-110830535D01*
X167536742Y-110830535D02*
X167536742Y-111009107D01*
X167536742Y-111009107D02*
X167560552Y-111080535D01*
X167560552Y-111080535D02*
X167584361Y-111116250D01*
X167584361Y-111116250D02*
X167631980Y-111151964D01*
X167631980Y-111151964D02*
X167751028Y-111151964D01*
X167751028Y-111151964D02*
X167798647Y-111116250D01*
X167798647Y-111116250D02*
X167822456Y-111080535D01*
X168309552Y-100991964D02*
X168476218Y-100634821D01*
X168595266Y-100991964D02*
X168595266Y-100241964D01*
X168595266Y-100241964D02*
X168404790Y-100241964D01*
X168404790Y-100241964D02*
X168357171Y-100277678D01*
X168357171Y-100277678D02*
X168333361Y-100313392D01*
X168333361Y-100313392D02*
X168309552Y-100384821D01*
X168309552Y-100384821D02*
X168309552Y-100491964D01*
X168309552Y-100491964D02*
X168333361Y-100563392D01*
X168333361Y-100563392D02*
X168357171Y-100599107D01*
X168357171Y-100599107D02*
X168404790Y-100634821D01*
X168404790Y-100634821D02*
X168595266Y-100634821D01*
X168000028Y-100241964D02*
X167904790Y-100241964D01*
X167904790Y-100241964D02*
X167857171Y-100277678D01*
X167857171Y-100277678D02*
X167809552Y-100349107D01*
X167809552Y-100349107D02*
X167785742Y-100491964D01*
X167785742Y-100491964D02*
X167785742Y-100741964D01*
X167785742Y-100741964D02*
X167809552Y-100884821D01*
X167809552Y-100884821D02*
X167857171Y-100956250D01*
X167857171Y-100956250D02*
X167904790Y-100991964D01*
X167904790Y-100991964D02*
X168000028Y-100991964D01*
X168000028Y-100991964D02*
X168047647Y-100956250D01*
X168047647Y-100956250D02*
X168095266Y-100884821D01*
X168095266Y-100884821D02*
X168119075Y-100741964D01*
X168119075Y-100741964D02*
X168119075Y-100491964D01*
X168119075Y-100491964D02*
X168095266Y-100349107D01*
X168095266Y-100349107D02*
X168047647Y-100277678D01*
X168047647Y-100277678D02*
X168000028Y-100241964D01*
X167619075Y-100241964D02*
X167500027Y-100991964D01*
X167500027Y-100991964D02*
X167404789Y-100456250D01*
X167404789Y-100456250D02*
X167309551Y-100991964D01*
X167309551Y-100991964D02*
X167190504Y-100241964D01*
X166738122Y-100991964D02*
X167023836Y-100991964D01*
X166880979Y-100991964D02*
X166880979Y-100241964D01*
X166880979Y-100241964D02*
X166928598Y-100349107D01*
X166928598Y-100349107D02*
X166976217Y-100420535D01*
X166976217Y-100420535D02*
X167023836Y-100456250D01*
X168309552Y-106106464D02*
X168476218Y-105749321D01*
X168595266Y-106106464D02*
X168595266Y-105356464D01*
X168595266Y-105356464D02*
X168404790Y-105356464D01*
X168404790Y-105356464D02*
X168357171Y-105392178D01*
X168357171Y-105392178D02*
X168333361Y-105427892D01*
X168333361Y-105427892D02*
X168309552Y-105499321D01*
X168309552Y-105499321D02*
X168309552Y-105606464D01*
X168309552Y-105606464D02*
X168333361Y-105677892D01*
X168333361Y-105677892D02*
X168357171Y-105713607D01*
X168357171Y-105713607D02*
X168404790Y-105749321D01*
X168404790Y-105749321D02*
X168595266Y-105749321D01*
X168000028Y-105356464D02*
X167904790Y-105356464D01*
X167904790Y-105356464D02*
X167857171Y-105392178D01*
X167857171Y-105392178D02*
X167809552Y-105463607D01*
X167809552Y-105463607D02*
X167785742Y-105606464D01*
X167785742Y-105606464D02*
X167785742Y-105856464D01*
X167785742Y-105856464D02*
X167809552Y-105999321D01*
X167809552Y-105999321D02*
X167857171Y-106070750D01*
X167857171Y-106070750D02*
X167904790Y-106106464D01*
X167904790Y-106106464D02*
X168000028Y-106106464D01*
X168000028Y-106106464D02*
X168047647Y-106070750D01*
X168047647Y-106070750D02*
X168095266Y-105999321D01*
X168095266Y-105999321D02*
X168119075Y-105856464D01*
X168119075Y-105856464D02*
X168119075Y-105606464D01*
X168119075Y-105606464D02*
X168095266Y-105463607D01*
X168095266Y-105463607D02*
X168047647Y-105392178D01*
X168047647Y-105392178D02*
X168000028Y-105356464D01*
X167619075Y-105356464D02*
X167500027Y-106106464D01*
X167500027Y-106106464D02*
X167404789Y-105570750D01*
X167404789Y-105570750D02*
X167309551Y-106106464D01*
X167309551Y-106106464D02*
X167190504Y-105356464D01*
X167047646Y-105356464D02*
X166738122Y-105356464D01*
X166738122Y-105356464D02*
X166904789Y-105642178D01*
X166904789Y-105642178D02*
X166833360Y-105642178D01*
X166833360Y-105642178D02*
X166785741Y-105677892D01*
X166785741Y-105677892D02*
X166761932Y-105713607D01*
X166761932Y-105713607D02*
X166738122Y-105785035D01*
X166738122Y-105785035D02*
X166738122Y-105963607D01*
X166738122Y-105963607D02*
X166761932Y-106035035D01*
X166761932Y-106035035D02*
X166785741Y-106070750D01*
X166785741Y-106070750D02*
X166833360Y-106106464D01*
X166833360Y-106106464D02*
X166976217Y-106106464D01*
X166976217Y-106106464D02*
X167023836Y-106070750D01*
X167023836Y-106070750D02*
X167047646Y-106035035D01*
X168309552Y-103595464D02*
X168476218Y-103238321D01*
X168595266Y-103595464D02*
X168595266Y-102845464D01*
X168595266Y-102845464D02*
X168404790Y-102845464D01*
X168404790Y-102845464D02*
X168357171Y-102881178D01*
X168357171Y-102881178D02*
X168333361Y-102916892D01*
X168333361Y-102916892D02*
X168309552Y-102988321D01*
X168309552Y-102988321D02*
X168309552Y-103095464D01*
X168309552Y-103095464D02*
X168333361Y-103166892D01*
X168333361Y-103166892D02*
X168357171Y-103202607D01*
X168357171Y-103202607D02*
X168404790Y-103238321D01*
X168404790Y-103238321D02*
X168595266Y-103238321D01*
X168000028Y-102845464D02*
X167904790Y-102845464D01*
X167904790Y-102845464D02*
X167857171Y-102881178D01*
X167857171Y-102881178D02*
X167809552Y-102952607D01*
X167809552Y-102952607D02*
X167785742Y-103095464D01*
X167785742Y-103095464D02*
X167785742Y-103345464D01*
X167785742Y-103345464D02*
X167809552Y-103488321D01*
X167809552Y-103488321D02*
X167857171Y-103559750D01*
X167857171Y-103559750D02*
X167904790Y-103595464D01*
X167904790Y-103595464D02*
X168000028Y-103595464D01*
X168000028Y-103595464D02*
X168047647Y-103559750D01*
X168047647Y-103559750D02*
X168095266Y-103488321D01*
X168095266Y-103488321D02*
X168119075Y-103345464D01*
X168119075Y-103345464D02*
X168119075Y-103095464D01*
X168119075Y-103095464D02*
X168095266Y-102952607D01*
X168095266Y-102952607D02*
X168047647Y-102881178D01*
X168047647Y-102881178D02*
X168000028Y-102845464D01*
X167619075Y-102845464D02*
X167500027Y-103595464D01*
X167500027Y-103595464D02*
X167404789Y-103059750D01*
X167404789Y-103059750D02*
X167309551Y-103595464D01*
X167309551Y-103595464D02*
X167190504Y-102845464D01*
X167023836Y-102916892D02*
X167000027Y-102881178D01*
X167000027Y-102881178D02*
X166952408Y-102845464D01*
X166952408Y-102845464D02*
X166833360Y-102845464D01*
X166833360Y-102845464D02*
X166785741Y-102881178D01*
X166785741Y-102881178D02*
X166761932Y-102916892D01*
X166761932Y-102916892D02*
X166738122Y-102988321D01*
X166738122Y-102988321D02*
X166738122Y-103059750D01*
X166738122Y-103059750D02*
X166761932Y-103166892D01*
X166761932Y-103166892D02*
X167047646Y-103595464D01*
X167047646Y-103595464D02*
X166738122Y-103595464D01*
X168524837Y-95876250D02*
X168453409Y-95911964D01*
X168453409Y-95911964D02*
X168334361Y-95911964D01*
X168334361Y-95911964D02*
X168286742Y-95876250D01*
X168286742Y-95876250D02*
X168262933Y-95840535D01*
X168262933Y-95840535D02*
X168239123Y-95769107D01*
X168239123Y-95769107D02*
X168239123Y-95697678D01*
X168239123Y-95697678D02*
X168262933Y-95626250D01*
X168262933Y-95626250D02*
X168286742Y-95590535D01*
X168286742Y-95590535D02*
X168334361Y-95554821D01*
X168334361Y-95554821D02*
X168429599Y-95519107D01*
X168429599Y-95519107D02*
X168477218Y-95483392D01*
X168477218Y-95483392D02*
X168501028Y-95447678D01*
X168501028Y-95447678D02*
X168524837Y-95376250D01*
X168524837Y-95376250D02*
X168524837Y-95304821D01*
X168524837Y-95304821D02*
X168501028Y-95233392D01*
X168501028Y-95233392D02*
X168477218Y-95197678D01*
X168477218Y-95197678D02*
X168429599Y-95161964D01*
X168429599Y-95161964D02*
X168310552Y-95161964D01*
X168310552Y-95161964D02*
X168239123Y-95197678D01*
X167739124Y-95840535D02*
X167762933Y-95876250D01*
X167762933Y-95876250D02*
X167834362Y-95911964D01*
X167834362Y-95911964D02*
X167881981Y-95911964D01*
X167881981Y-95911964D02*
X167953409Y-95876250D01*
X167953409Y-95876250D02*
X168001028Y-95804821D01*
X168001028Y-95804821D02*
X168024838Y-95733392D01*
X168024838Y-95733392D02*
X168048647Y-95590535D01*
X168048647Y-95590535D02*
X168048647Y-95483392D01*
X168048647Y-95483392D02*
X168024838Y-95340535D01*
X168024838Y-95340535D02*
X168001028Y-95269107D01*
X168001028Y-95269107D02*
X167953409Y-95197678D01*
X167953409Y-95197678D02*
X167881981Y-95161964D01*
X167881981Y-95161964D02*
X167834362Y-95161964D01*
X167834362Y-95161964D02*
X167762933Y-95197678D01*
X167762933Y-95197678D02*
X167739124Y-95233392D01*
X167286743Y-95911964D02*
X167524838Y-95911964D01*
X167524838Y-95911964D02*
X167524838Y-95161964D01*
X183443409Y-88291964D02*
X183610075Y-87934821D01*
X183729123Y-88291964D02*
X183729123Y-87541964D01*
X183729123Y-87541964D02*
X183538647Y-87541964D01*
X183538647Y-87541964D02*
X183491028Y-87577678D01*
X183491028Y-87577678D02*
X183467218Y-87613392D01*
X183467218Y-87613392D02*
X183443409Y-87684821D01*
X183443409Y-87684821D02*
X183443409Y-87791964D01*
X183443409Y-87791964D02*
X183467218Y-87863392D01*
X183467218Y-87863392D02*
X183491028Y-87899107D01*
X183491028Y-87899107D02*
X183538647Y-87934821D01*
X183538647Y-87934821D02*
X183729123Y-87934821D01*
X183252932Y-88256250D02*
X183181504Y-88291964D01*
X183181504Y-88291964D02*
X183062456Y-88291964D01*
X183062456Y-88291964D02*
X183014837Y-88256250D01*
X183014837Y-88256250D02*
X182991028Y-88220535D01*
X182991028Y-88220535D02*
X182967218Y-88149107D01*
X182967218Y-88149107D02*
X182967218Y-88077678D01*
X182967218Y-88077678D02*
X182991028Y-88006250D01*
X182991028Y-88006250D02*
X183014837Y-87970535D01*
X183014837Y-87970535D02*
X183062456Y-87934821D01*
X183062456Y-87934821D02*
X183157694Y-87899107D01*
X183157694Y-87899107D02*
X183205313Y-87863392D01*
X183205313Y-87863392D02*
X183229123Y-87827678D01*
X183229123Y-87827678D02*
X183252932Y-87756250D01*
X183252932Y-87756250D02*
X183252932Y-87684821D01*
X183252932Y-87684821D02*
X183229123Y-87613392D01*
X183229123Y-87613392D02*
X183205313Y-87577678D01*
X183205313Y-87577678D02*
X183157694Y-87541964D01*
X183157694Y-87541964D02*
X183038647Y-87541964D01*
X183038647Y-87541964D02*
X182967218Y-87577678D01*
X182824361Y-87541964D02*
X182538647Y-87541964D01*
X182681504Y-88291964D02*
X182681504Y-87541964D01*
X183526219Y-106035035D02*
X183550028Y-106070750D01*
X183550028Y-106070750D02*
X183621457Y-106106464D01*
X183621457Y-106106464D02*
X183669076Y-106106464D01*
X183669076Y-106106464D02*
X183740504Y-106070750D01*
X183740504Y-106070750D02*
X183788123Y-105999321D01*
X183788123Y-105999321D02*
X183811933Y-105927892D01*
X183811933Y-105927892D02*
X183835742Y-105785035D01*
X183835742Y-105785035D02*
X183835742Y-105677892D01*
X183835742Y-105677892D02*
X183811933Y-105535035D01*
X183811933Y-105535035D02*
X183788123Y-105463607D01*
X183788123Y-105463607D02*
X183740504Y-105392178D01*
X183740504Y-105392178D02*
X183669076Y-105356464D01*
X183669076Y-105356464D02*
X183621457Y-105356464D01*
X183621457Y-105356464D02*
X183550028Y-105392178D01*
X183550028Y-105392178D02*
X183526219Y-105427892D01*
X183216695Y-105356464D02*
X183121457Y-105356464D01*
X183121457Y-105356464D02*
X183073838Y-105392178D01*
X183073838Y-105392178D02*
X183026219Y-105463607D01*
X183026219Y-105463607D02*
X183002409Y-105606464D01*
X183002409Y-105606464D02*
X183002409Y-105856464D01*
X183002409Y-105856464D02*
X183026219Y-105999321D01*
X183026219Y-105999321D02*
X183073838Y-106070750D01*
X183073838Y-106070750D02*
X183121457Y-106106464D01*
X183121457Y-106106464D02*
X183216695Y-106106464D01*
X183216695Y-106106464D02*
X183264314Y-106070750D01*
X183264314Y-106070750D02*
X183311933Y-105999321D01*
X183311933Y-105999321D02*
X183335742Y-105856464D01*
X183335742Y-105856464D02*
X183335742Y-105606464D01*
X183335742Y-105606464D02*
X183311933Y-105463607D01*
X183311933Y-105463607D02*
X183264314Y-105392178D01*
X183264314Y-105392178D02*
X183216695Y-105356464D01*
X182550028Y-106106464D02*
X182788123Y-106106464D01*
X182788123Y-106106464D02*
X182788123Y-105356464D01*
X182145266Y-105356464D02*
X182383361Y-105356464D01*
X182383361Y-105356464D02*
X182407170Y-105713607D01*
X182407170Y-105713607D02*
X182383361Y-105677892D01*
X182383361Y-105677892D02*
X182335742Y-105642178D01*
X182335742Y-105642178D02*
X182216694Y-105642178D01*
X182216694Y-105642178D02*
X182169075Y-105677892D01*
X182169075Y-105677892D02*
X182145266Y-105713607D01*
X182145266Y-105713607D02*
X182121456Y-105785035D01*
X182121456Y-105785035D02*
X182121456Y-105963607D01*
X182121456Y-105963607D02*
X182145266Y-106035035D01*
X182145266Y-106035035D02*
X182169075Y-106070750D01*
X182169075Y-106070750D02*
X182216694Y-106106464D01*
X182216694Y-106106464D02*
X182335742Y-106106464D01*
X182335742Y-106106464D02*
X182383361Y-106070750D01*
X182383361Y-106070750D02*
X182407170Y-106035035D01*
X183526219Y-93335035D02*
X183550028Y-93370750D01*
X183550028Y-93370750D02*
X183621457Y-93406464D01*
X183621457Y-93406464D02*
X183669076Y-93406464D01*
X183669076Y-93406464D02*
X183740504Y-93370750D01*
X183740504Y-93370750D02*
X183788123Y-93299321D01*
X183788123Y-93299321D02*
X183811933Y-93227892D01*
X183811933Y-93227892D02*
X183835742Y-93085035D01*
X183835742Y-93085035D02*
X183835742Y-92977892D01*
X183835742Y-92977892D02*
X183811933Y-92835035D01*
X183811933Y-92835035D02*
X183788123Y-92763607D01*
X183788123Y-92763607D02*
X183740504Y-92692178D01*
X183740504Y-92692178D02*
X183669076Y-92656464D01*
X183669076Y-92656464D02*
X183621457Y-92656464D01*
X183621457Y-92656464D02*
X183550028Y-92692178D01*
X183550028Y-92692178D02*
X183526219Y-92727892D01*
X183216695Y-92656464D02*
X183121457Y-92656464D01*
X183121457Y-92656464D02*
X183073838Y-92692178D01*
X183073838Y-92692178D02*
X183026219Y-92763607D01*
X183026219Y-92763607D02*
X183002409Y-92906464D01*
X183002409Y-92906464D02*
X183002409Y-93156464D01*
X183002409Y-93156464D02*
X183026219Y-93299321D01*
X183026219Y-93299321D02*
X183073838Y-93370750D01*
X183073838Y-93370750D02*
X183121457Y-93406464D01*
X183121457Y-93406464D02*
X183216695Y-93406464D01*
X183216695Y-93406464D02*
X183264314Y-93370750D01*
X183264314Y-93370750D02*
X183311933Y-93299321D01*
X183311933Y-93299321D02*
X183335742Y-93156464D01*
X183335742Y-93156464D02*
X183335742Y-92906464D01*
X183335742Y-92906464D02*
X183311933Y-92763607D01*
X183311933Y-92763607D02*
X183264314Y-92692178D01*
X183264314Y-92692178D02*
X183216695Y-92656464D01*
X182550028Y-93406464D02*
X182788123Y-93406464D01*
X182788123Y-93406464D02*
X182788123Y-92656464D01*
X182288123Y-92656464D02*
X182240504Y-92656464D01*
X182240504Y-92656464D02*
X182192885Y-92692178D01*
X182192885Y-92692178D02*
X182169075Y-92727892D01*
X182169075Y-92727892D02*
X182145266Y-92799321D01*
X182145266Y-92799321D02*
X182121456Y-92942178D01*
X182121456Y-92942178D02*
X182121456Y-93120750D01*
X182121456Y-93120750D02*
X182145266Y-93263607D01*
X182145266Y-93263607D02*
X182169075Y-93335035D01*
X182169075Y-93335035D02*
X182192885Y-93370750D01*
X182192885Y-93370750D02*
X182240504Y-93406464D01*
X182240504Y-93406464D02*
X182288123Y-93406464D01*
X182288123Y-93406464D02*
X182335742Y-93370750D01*
X182335742Y-93370750D02*
X182359551Y-93335035D01*
X182359551Y-93335035D02*
X182383361Y-93263607D01*
X182383361Y-93263607D02*
X182407170Y-93120750D01*
X182407170Y-93120750D02*
X182407170Y-92942178D01*
X182407170Y-92942178D02*
X182383361Y-92799321D01*
X182383361Y-92799321D02*
X182359551Y-92727892D01*
X182359551Y-92727892D02*
X182335742Y-92692178D01*
X182335742Y-92692178D02*
X182288123Y-92656464D01*
X183689480Y-108092107D02*
X183618052Y-108127821D01*
X183618052Y-108127821D02*
X183594242Y-108163535D01*
X183594242Y-108163535D02*
X183570433Y-108234964D01*
X183570433Y-108234964D02*
X183570433Y-108342107D01*
X183570433Y-108342107D02*
X183594242Y-108413535D01*
X183594242Y-108413535D02*
X183618052Y-108449250D01*
X183618052Y-108449250D02*
X183665671Y-108484964D01*
X183665671Y-108484964D02*
X183856147Y-108484964D01*
X183856147Y-108484964D02*
X183856147Y-107734964D01*
X183856147Y-107734964D02*
X183689480Y-107734964D01*
X183689480Y-107734964D02*
X183641861Y-107770678D01*
X183641861Y-107770678D02*
X183618052Y-107806392D01*
X183618052Y-107806392D02*
X183594242Y-107877821D01*
X183594242Y-107877821D02*
X183594242Y-107949250D01*
X183594242Y-107949250D02*
X183618052Y-108020678D01*
X183618052Y-108020678D02*
X183641861Y-108056392D01*
X183641861Y-108056392D02*
X183689480Y-108092107D01*
X183689480Y-108092107D02*
X183856147Y-108092107D01*
X183379956Y-107806392D02*
X183356147Y-107770678D01*
X183356147Y-107770678D02*
X183308528Y-107734964D01*
X183308528Y-107734964D02*
X183189480Y-107734964D01*
X183189480Y-107734964D02*
X183141861Y-107770678D01*
X183141861Y-107770678D02*
X183118052Y-107806392D01*
X183118052Y-107806392D02*
X183094242Y-107877821D01*
X183094242Y-107877821D02*
X183094242Y-107949250D01*
X183094242Y-107949250D02*
X183118052Y-108056392D01*
X183118052Y-108056392D02*
X183403766Y-108484964D01*
X183403766Y-108484964D02*
X183094242Y-108484964D01*
X168536741Y-93336250D02*
X168465313Y-93371964D01*
X168465313Y-93371964D02*
X168346265Y-93371964D01*
X168346265Y-93371964D02*
X168298646Y-93336250D01*
X168298646Y-93336250D02*
X168274837Y-93300535D01*
X168274837Y-93300535D02*
X168251027Y-93229107D01*
X168251027Y-93229107D02*
X168251027Y-93157678D01*
X168251027Y-93157678D02*
X168274837Y-93086250D01*
X168274837Y-93086250D02*
X168298646Y-93050535D01*
X168298646Y-93050535D02*
X168346265Y-93014821D01*
X168346265Y-93014821D02*
X168441503Y-92979107D01*
X168441503Y-92979107D02*
X168489122Y-92943392D01*
X168489122Y-92943392D02*
X168512932Y-92907678D01*
X168512932Y-92907678D02*
X168536741Y-92836250D01*
X168536741Y-92836250D02*
X168536741Y-92764821D01*
X168536741Y-92764821D02*
X168512932Y-92693392D01*
X168512932Y-92693392D02*
X168489122Y-92657678D01*
X168489122Y-92657678D02*
X168441503Y-92621964D01*
X168441503Y-92621964D02*
X168322456Y-92621964D01*
X168322456Y-92621964D02*
X168251027Y-92657678D01*
X168036742Y-93371964D02*
X168036742Y-92621964D01*
X168036742Y-92621964D02*
X167917694Y-92621964D01*
X167917694Y-92621964D02*
X167846266Y-92657678D01*
X167846266Y-92657678D02*
X167798647Y-92729107D01*
X167798647Y-92729107D02*
X167774837Y-92800535D01*
X167774837Y-92800535D02*
X167751028Y-92943392D01*
X167751028Y-92943392D02*
X167751028Y-93050535D01*
X167751028Y-93050535D02*
X167774837Y-93193392D01*
X167774837Y-93193392D02*
X167798647Y-93264821D01*
X167798647Y-93264821D02*
X167846266Y-93336250D01*
X167846266Y-93336250D02*
X167917694Y-93371964D01*
X167917694Y-93371964D02*
X168036742Y-93371964D01*
X167560551Y-93157678D02*
X167322456Y-93157678D01*
X167608170Y-93371964D02*
X167441504Y-92621964D01*
X167441504Y-92621964D02*
X167274837Y-93371964D01*
X183772765Y-90081964D02*
X183606099Y-90831964D01*
X183606099Y-90831964D02*
X183439432Y-90081964D01*
X182987052Y-90760535D02*
X183010861Y-90796250D01*
X183010861Y-90796250D02*
X183082290Y-90831964D01*
X183082290Y-90831964D02*
X183129909Y-90831964D01*
X183129909Y-90831964D02*
X183201337Y-90796250D01*
X183201337Y-90796250D02*
X183248956Y-90724821D01*
X183248956Y-90724821D02*
X183272766Y-90653392D01*
X183272766Y-90653392D02*
X183296575Y-90510535D01*
X183296575Y-90510535D02*
X183296575Y-90403392D01*
X183296575Y-90403392D02*
X183272766Y-90260535D01*
X183272766Y-90260535D02*
X183248956Y-90189107D01*
X183248956Y-90189107D02*
X183201337Y-90117678D01*
X183201337Y-90117678D02*
X183129909Y-90081964D01*
X183129909Y-90081964D02*
X183082290Y-90081964D01*
X183082290Y-90081964D02*
X183010861Y-90117678D01*
X183010861Y-90117678D02*
X182987052Y-90153392D01*
X182487052Y-90760535D02*
X182510861Y-90796250D01*
X182510861Y-90796250D02*
X182582290Y-90831964D01*
X182582290Y-90831964D02*
X182629909Y-90831964D01*
X182629909Y-90831964D02*
X182701337Y-90796250D01*
X182701337Y-90796250D02*
X182748956Y-90724821D01*
X182748956Y-90724821D02*
X182772766Y-90653392D01*
X182772766Y-90653392D02*
X182796575Y-90510535D01*
X182796575Y-90510535D02*
X182796575Y-90403392D01*
X182796575Y-90403392D02*
X182772766Y-90260535D01*
X182772766Y-90260535D02*
X182748956Y-90189107D01*
X182748956Y-90189107D02*
X182701337Y-90117678D01*
X182701337Y-90117678D02*
X182629909Y-90081964D01*
X182629909Y-90081964D02*
X182582290Y-90081964D01*
X182582290Y-90081964D02*
X182510861Y-90117678D01*
X182510861Y-90117678D02*
X182487052Y-90153392D01*
X183625980Y-110695607D02*
X183554552Y-110731321D01*
X183554552Y-110731321D02*
X183530742Y-110767035D01*
X183530742Y-110767035D02*
X183506933Y-110838464D01*
X183506933Y-110838464D02*
X183506933Y-110945607D01*
X183506933Y-110945607D02*
X183530742Y-111017035D01*
X183530742Y-111017035D02*
X183554552Y-111052750D01*
X183554552Y-111052750D02*
X183602171Y-111088464D01*
X183602171Y-111088464D02*
X183792647Y-111088464D01*
X183792647Y-111088464D02*
X183792647Y-110338464D01*
X183792647Y-110338464D02*
X183625980Y-110338464D01*
X183625980Y-110338464D02*
X183578361Y-110374178D01*
X183578361Y-110374178D02*
X183554552Y-110409892D01*
X183554552Y-110409892D02*
X183530742Y-110481321D01*
X183530742Y-110481321D02*
X183530742Y-110552750D01*
X183530742Y-110552750D02*
X183554552Y-110624178D01*
X183554552Y-110624178D02*
X183578361Y-110659892D01*
X183578361Y-110659892D02*
X183625980Y-110695607D01*
X183625980Y-110695607D02*
X183792647Y-110695607D01*
X183078361Y-110338464D02*
X183173599Y-110338464D01*
X183173599Y-110338464D02*
X183221218Y-110374178D01*
X183221218Y-110374178D02*
X183245028Y-110409892D01*
X183245028Y-110409892D02*
X183292647Y-110517035D01*
X183292647Y-110517035D02*
X183316456Y-110659892D01*
X183316456Y-110659892D02*
X183316456Y-110945607D01*
X183316456Y-110945607D02*
X183292647Y-111017035D01*
X183292647Y-111017035D02*
X183268837Y-111052750D01*
X183268837Y-111052750D02*
X183221218Y-111088464D01*
X183221218Y-111088464D02*
X183125980Y-111088464D01*
X183125980Y-111088464D02*
X183078361Y-111052750D01*
X183078361Y-111052750D02*
X183054552Y-111017035D01*
X183054552Y-111017035D02*
X183030742Y-110945607D01*
X183030742Y-110945607D02*
X183030742Y-110767035D01*
X183030742Y-110767035D02*
X183054552Y-110695607D01*
X183054552Y-110695607D02*
X183078361Y-110659892D01*
X183078361Y-110659892D02*
X183125980Y-110624178D01*
X183125980Y-110624178D02*
X183221218Y-110624178D01*
X183221218Y-110624178D02*
X183268837Y-110659892D01*
X183268837Y-110659892D02*
X183292647Y-110695607D01*
X183292647Y-110695607D02*
X183316456Y-110767035D01*
X168309552Y-98388464D02*
X168476218Y-98031321D01*
X168595266Y-98388464D02*
X168595266Y-97638464D01*
X168595266Y-97638464D02*
X168404790Y-97638464D01*
X168404790Y-97638464D02*
X168357171Y-97674178D01*
X168357171Y-97674178D02*
X168333361Y-97709892D01*
X168333361Y-97709892D02*
X168309552Y-97781321D01*
X168309552Y-97781321D02*
X168309552Y-97888464D01*
X168309552Y-97888464D02*
X168333361Y-97959892D01*
X168333361Y-97959892D02*
X168357171Y-97995607D01*
X168357171Y-97995607D02*
X168404790Y-98031321D01*
X168404790Y-98031321D02*
X168595266Y-98031321D01*
X168000028Y-97638464D02*
X167904790Y-97638464D01*
X167904790Y-97638464D02*
X167857171Y-97674178D01*
X167857171Y-97674178D02*
X167809552Y-97745607D01*
X167809552Y-97745607D02*
X167785742Y-97888464D01*
X167785742Y-97888464D02*
X167785742Y-98138464D01*
X167785742Y-98138464D02*
X167809552Y-98281321D01*
X167809552Y-98281321D02*
X167857171Y-98352750D01*
X167857171Y-98352750D02*
X167904790Y-98388464D01*
X167904790Y-98388464D02*
X168000028Y-98388464D01*
X168000028Y-98388464D02*
X168047647Y-98352750D01*
X168047647Y-98352750D02*
X168095266Y-98281321D01*
X168095266Y-98281321D02*
X168119075Y-98138464D01*
X168119075Y-98138464D02*
X168119075Y-97888464D01*
X168119075Y-97888464D02*
X168095266Y-97745607D01*
X168095266Y-97745607D02*
X168047647Y-97674178D01*
X168047647Y-97674178D02*
X168000028Y-97638464D01*
X167619075Y-97638464D02*
X167500027Y-98388464D01*
X167500027Y-98388464D02*
X167404789Y-97852750D01*
X167404789Y-97852750D02*
X167309551Y-98388464D01*
X167309551Y-98388464D02*
X167190504Y-97638464D01*
X166904789Y-97638464D02*
X166857170Y-97638464D01*
X166857170Y-97638464D02*
X166809551Y-97674178D01*
X166809551Y-97674178D02*
X166785741Y-97709892D01*
X166785741Y-97709892D02*
X166761932Y-97781321D01*
X166761932Y-97781321D02*
X166738122Y-97924178D01*
X166738122Y-97924178D02*
X166738122Y-98102750D01*
X166738122Y-98102750D02*
X166761932Y-98245607D01*
X166761932Y-98245607D02*
X166785741Y-98317035D01*
X166785741Y-98317035D02*
X166809551Y-98352750D01*
X166809551Y-98352750D02*
X166857170Y-98388464D01*
X166857170Y-98388464D02*
X166904789Y-98388464D01*
X166904789Y-98388464D02*
X166952408Y-98352750D01*
X166952408Y-98352750D02*
X166976217Y-98317035D01*
X166976217Y-98317035D02*
X167000027Y-98245607D01*
X167000027Y-98245607D02*
X167023836Y-98102750D01*
X167023836Y-98102750D02*
X167023836Y-97924178D01*
X167023836Y-97924178D02*
X167000027Y-97781321D01*
X167000027Y-97781321D02*
X166976217Y-97709892D01*
X166976217Y-97709892D02*
X166952408Y-97674178D01*
X166952408Y-97674178D02*
X166904789Y-97638464D01*
X168131980Y-108219107D02*
X168060552Y-108254821D01*
X168060552Y-108254821D02*
X168036742Y-108290535D01*
X168036742Y-108290535D02*
X168012933Y-108361964D01*
X168012933Y-108361964D02*
X168012933Y-108469107D01*
X168012933Y-108469107D02*
X168036742Y-108540535D01*
X168036742Y-108540535D02*
X168060552Y-108576250D01*
X168060552Y-108576250D02*
X168108171Y-108611964D01*
X168108171Y-108611964D02*
X168298647Y-108611964D01*
X168298647Y-108611964D02*
X168298647Y-107861964D01*
X168298647Y-107861964D02*
X168131980Y-107861964D01*
X168131980Y-107861964D02*
X168084361Y-107897678D01*
X168084361Y-107897678D02*
X168060552Y-107933392D01*
X168060552Y-107933392D02*
X168036742Y-108004821D01*
X168036742Y-108004821D02*
X168036742Y-108076250D01*
X168036742Y-108076250D02*
X168060552Y-108147678D01*
X168060552Y-108147678D02*
X168084361Y-108183392D01*
X168084361Y-108183392D02*
X168131980Y-108219107D01*
X168131980Y-108219107D02*
X168298647Y-108219107D01*
X167584361Y-108111964D02*
X167584361Y-108611964D01*
X167703409Y-107826250D02*
X167822456Y-108361964D01*
X167822456Y-108361964D02*
X167512933Y-108361964D01*
X183487052Y-84974178D02*
X183534671Y-84938464D01*
X183534671Y-84938464D02*
X183606100Y-84938464D01*
X183606100Y-84938464D02*
X183677528Y-84974178D01*
X183677528Y-84974178D02*
X183725147Y-85045607D01*
X183725147Y-85045607D02*
X183748957Y-85117035D01*
X183748957Y-85117035D02*
X183772766Y-85259892D01*
X183772766Y-85259892D02*
X183772766Y-85367035D01*
X183772766Y-85367035D02*
X183748957Y-85509892D01*
X183748957Y-85509892D02*
X183725147Y-85581321D01*
X183725147Y-85581321D02*
X183677528Y-85652750D01*
X183677528Y-85652750D02*
X183606100Y-85688464D01*
X183606100Y-85688464D02*
X183558481Y-85688464D01*
X183558481Y-85688464D02*
X183487052Y-85652750D01*
X183487052Y-85652750D02*
X183463243Y-85617035D01*
X183463243Y-85617035D02*
X183463243Y-85367035D01*
X183463243Y-85367035D02*
X183558481Y-85367035D01*
X183248957Y-85688464D02*
X183248957Y-84938464D01*
X183248957Y-84938464D02*
X182963243Y-85688464D01*
X182963243Y-85688464D02*
X182963243Y-84938464D01*
X182725147Y-85688464D02*
X182725147Y-84938464D01*
X182725147Y-84938464D02*
X182606099Y-84938464D01*
X182606099Y-84938464D02*
X182534671Y-84974178D01*
X182534671Y-84974178D02*
X182487052Y-85045607D01*
X182487052Y-85045607D02*
X182463242Y-85117035D01*
X182463242Y-85117035D02*
X182439433Y-85259892D01*
X182439433Y-85259892D02*
X182439433Y-85367035D01*
X182439433Y-85367035D02*
X182463242Y-85509892D01*
X182463242Y-85509892D02*
X182487052Y-85581321D01*
X182487052Y-85581321D02*
X182534671Y-85652750D01*
X182534671Y-85652750D02*
X182606099Y-85688464D01*
X182606099Y-85688464D02*
X182725147Y-85688464D01*
X183526219Y-98385035D02*
X183550028Y-98420750D01*
X183550028Y-98420750D02*
X183621457Y-98456464D01*
X183621457Y-98456464D02*
X183669076Y-98456464D01*
X183669076Y-98456464D02*
X183740504Y-98420750D01*
X183740504Y-98420750D02*
X183788123Y-98349321D01*
X183788123Y-98349321D02*
X183811933Y-98277892D01*
X183811933Y-98277892D02*
X183835742Y-98135035D01*
X183835742Y-98135035D02*
X183835742Y-98027892D01*
X183835742Y-98027892D02*
X183811933Y-97885035D01*
X183811933Y-97885035D02*
X183788123Y-97813607D01*
X183788123Y-97813607D02*
X183740504Y-97742178D01*
X183740504Y-97742178D02*
X183669076Y-97706464D01*
X183669076Y-97706464D02*
X183621457Y-97706464D01*
X183621457Y-97706464D02*
X183550028Y-97742178D01*
X183550028Y-97742178D02*
X183526219Y-97777892D01*
X183216695Y-97706464D02*
X183121457Y-97706464D01*
X183121457Y-97706464D02*
X183073838Y-97742178D01*
X183073838Y-97742178D02*
X183026219Y-97813607D01*
X183026219Y-97813607D02*
X183002409Y-97956464D01*
X183002409Y-97956464D02*
X183002409Y-98206464D01*
X183002409Y-98206464D02*
X183026219Y-98349321D01*
X183026219Y-98349321D02*
X183073838Y-98420750D01*
X183073838Y-98420750D02*
X183121457Y-98456464D01*
X183121457Y-98456464D02*
X183216695Y-98456464D01*
X183216695Y-98456464D02*
X183264314Y-98420750D01*
X183264314Y-98420750D02*
X183311933Y-98349321D01*
X183311933Y-98349321D02*
X183335742Y-98206464D01*
X183335742Y-98206464D02*
X183335742Y-97956464D01*
X183335742Y-97956464D02*
X183311933Y-97813607D01*
X183311933Y-97813607D02*
X183264314Y-97742178D01*
X183264314Y-97742178D02*
X183216695Y-97706464D01*
X182550028Y-98456464D02*
X182788123Y-98456464D01*
X182788123Y-98456464D02*
X182788123Y-97706464D01*
X182407170Y-97777892D02*
X182383361Y-97742178D01*
X182383361Y-97742178D02*
X182335742Y-97706464D01*
X182335742Y-97706464D02*
X182216694Y-97706464D01*
X182216694Y-97706464D02*
X182169075Y-97742178D01*
X182169075Y-97742178D02*
X182145266Y-97777892D01*
X182145266Y-97777892D02*
X182121456Y-97849321D01*
X182121456Y-97849321D02*
X182121456Y-97920750D01*
X182121456Y-97920750D02*
X182145266Y-98027892D01*
X182145266Y-98027892D02*
X182430980Y-98456464D01*
X182430980Y-98456464D02*
X182121456Y-98456464D01*
D12*
X178111385Y-79833866D02*
X177349480Y-79833866D01*
D11*
X183514838Y-83211964D02*
X183681504Y-82854821D01*
X183800552Y-83211964D02*
X183800552Y-82461964D01*
X183800552Y-82461964D02*
X183610076Y-82461964D01*
X183610076Y-82461964D02*
X183562457Y-82497678D01*
X183562457Y-82497678D02*
X183538647Y-82533392D01*
X183538647Y-82533392D02*
X183514838Y-82604821D01*
X183514838Y-82604821D02*
X183514838Y-82711964D01*
X183514838Y-82711964D02*
X183538647Y-82783392D01*
X183538647Y-82783392D02*
X183562457Y-82819107D01*
X183562457Y-82819107D02*
X183610076Y-82854821D01*
X183610076Y-82854821D02*
X183800552Y-82854821D01*
X183324361Y-82997678D02*
X183086266Y-82997678D01*
X183371980Y-83211964D02*
X183205314Y-82461964D01*
X183205314Y-82461964D02*
X183038647Y-83211964D01*
X182919600Y-82461964D02*
X182800552Y-83211964D01*
X182800552Y-83211964D02*
X182705314Y-82676250D01*
X182705314Y-82676250D02*
X182610076Y-83211964D01*
X182610076Y-83211964D02*
X182491029Y-82461964D01*
D12*
X172103419Y-115176618D02*
X171627228Y-114843285D01*
X172103419Y-114605190D02*
X171103419Y-114605190D01*
X171103419Y-114605190D02*
X171103419Y-114986142D01*
X171103419Y-114986142D02*
X171151038Y-115081380D01*
X171151038Y-115081380D02*
X171198657Y-115128999D01*
X171198657Y-115128999D02*
X171293895Y-115176618D01*
X171293895Y-115176618D02*
X171436752Y-115176618D01*
X171436752Y-115176618D02*
X171531990Y-115128999D01*
X171531990Y-115128999D02*
X171579609Y-115081380D01*
X171579609Y-115081380D02*
X171627228Y-114986142D01*
X171627228Y-114986142D02*
X171627228Y-114605190D01*
X171579609Y-115605190D02*
X171579609Y-115938523D01*
X172103419Y-116081380D02*
X172103419Y-115605190D01*
X172103419Y-115605190D02*
X171103419Y-115605190D01*
X171103419Y-115605190D02*
X171103419Y-116081380D01*
X172055800Y-116462333D02*
X172103419Y-116605190D01*
X172103419Y-116605190D02*
X172103419Y-116843285D01*
X172103419Y-116843285D02*
X172055800Y-116938523D01*
X172055800Y-116938523D02*
X172008180Y-116986142D01*
X172008180Y-116986142D02*
X171912942Y-117033761D01*
X171912942Y-117033761D02*
X171817704Y-117033761D01*
X171817704Y-117033761D02*
X171722466Y-116986142D01*
X171722466Y-116986142D02*
X171674847Y-116938523D01*
X171674847Y-116938523D02*
X171627228Y-116843285D01*
X171627228Y-116843285D02*
X171579609Y-116652809D01*
X171579609Y-116652809D02*
X171531990Y-116557571D01*
X171531990Y-116557571D02*
X171484371Y-116509952D01*
X171484371Y-116509952D02*
X171389133Y-116462333D01*
X171389133Y-116462333D02*
X171293895Y-116462333D01*
X171293895Y-116462333D02*
X171198657Y-116509952D01*
X171198657Y-116509952D02*
X171151038Y-116557571D01*
X171151038Y-116557571D02*
X171103419Y-116652809D01*
X171103419Y-116652809D02*
X171103419Y-116890904D01*
X171103419Y-116890904D02*
X171151038Y-117033761D01*
X171579609Y-117462333D02*
X171579609Y-117795666D01*
X172103419Y-117938523D02*
X172103419Y-117462333D01*
X172103419Y-117462333D02*
X171103419Y-117462333D01*
X171103419Y-117462333D02*
X171103419Y-117938523D01*
X171103419Y-118224238D02*
X171103419Y-118795666D01*
X172103419Y-118509952D02*
X171103419Y-118509952D01*
X179739919Y-115608595D02*
X179739919Y-116180023D01*
X180739919Y-115894309D02*
X179739919Y-115894309D01*
X180739919Y-117084785D02*
X180263728Y-116751452D01*
X180739919Y-116513357D02*
X179739919Y-116513357D01*
X179739919Y-116513357D02*
X179739919Y-116894309D01*
X179739919Y-116894309D02*
X179787538Y-116989547D01*
X179787538Y-116989547D02*
X179835157Y-117037166D01*
X179835157Y-117037166D02*
X179930395Y-117084785D01*
X179930395Y-117084785D02*
X180073252Y-117084785D01*
X180073252Y-117084785D02*
X180168490Y-117037166D01*
X180168490Y-117037166D02*
X180216109Y-116989547D01*
X180216109Y-116989547D02*
X180263728Y-116894309D01*
X180263728Y-116894309D02*
X180263728Y-116513357D01*
X180739919Y-118084785D02*
X180263728Y-117751452D01*
X180739919Y-117513357D02*
X179739919Y-117513357D01*
X179739919Y-117513357D02*
X179739919Y-117894309D01*
X179739919Y-117894309D02*
X179787538Y-117989547D01*
X179787538Y-117989547D02*
X179835157Y-118037166D01*
X179835157Y-118037166D02*
X179930395Y-118084785D01*
X179930395Y-118084785D02*
X180073252Y-118084785D01*
X180073252Y-118084785D02*
X180168490Y-118037166D01*
X180168490Y-118037166D02*
X180216109Y-117989547D01*
X180216109Y-117989547D02*
X180263728Y-117894309D01*
X180263728Y-117894309D02*
X180263728Y-117513357D01*
X180692300Y-118465738D02*
X180739919Y-118608595D01*
X180739919Y-118608595D02*
X180739919Y-118846690D01*
X180739919Y-118846690D02*
X180692300Y-118941928D01*
X180692300Y-118941928D02*
X180644680Y-118989547D01*
X180644680Y-118989547D02*
X180549442Y-119037166D01*
X180549442Y-119037166D02*
X180454204Y-119037166D01*
X180454204Y-119037166D02*
X180358966Y-118989547D01*
X180358966Y-118989547D02*
X180311347Y-118941928D01*
X180311347Y-118941928D02*
X180263728Y-118846690D01*
X180263728Y-118846690D02*
X180216109Y-118656214D01*
X180216109Y-118656214D02*
X180168490Y-118560976D01*
X180168490Y-118560976D02*
X180120871Y-118513357D01*
X180120871Y-118513357D02*
X180025633Y-118465738D01*
X180025633Y-118465738D02*
X179930395Y-118465738D01*
X179930395Y-118465738D02*
X179835157Y-118513357D01*
X179835157Y-118513357D02*
X179787538Y-118560976D01*
X179787538Y-118560976D02*
X179739919Y-118656214D01*
X179739919Y-118656214D02*
X179739919Y-118894309D01*
X179739919Y-118894309D02*
X179787538Y-119037166D01*
X169898600Y-119756000D02*
X169898600Y-113756000D01*
X170148600Y-119756000D02*
X169898600Y-119756000D01*
X173398600Y-119756000D02*
X173148600Y-119756000D01*
X169898600Y-113756000D02*
X170148600Y-113756000D01*
X173148600Y-113756000D02*
X173398600Y-113756000D01*
X173398600Y-113756000D02*
X173398600Y-119756000D01*
X186698600Y-113446000D02*
X186698600Y-119446000D01*
X174698600Y-113446000D02*
X186698600Y-113446000D01*
X186698600Y-119446000D02*
X174698600Y-119446000D01*
X174698600Y-119446000D02*
X174698600Y-113446000D01*
%LPC*%
D13*
X83178600Y-81886000D03*
D14*
X83458600Y-77686000D03*
D15*
X88678600Y-81886000D03*
D14*
X93898600Y-77686000D03*
D13*
X94178600Y-81886000D03*
D16*
X88678600Y-87786000D03*
X83678600Y-85686000D03*
X93678600Y-85686000D03*
D13*
X101178600Y-69656000D03*
D14*
X101458600Y-65456000D03*
D15*
X106678600Y-69656000D03*
D14*
X111898600Y-65456000D03*
D13*
X112178600Y-69656000D03*
D16*
X106678600Y-75556000D03*
X101678600Y-73456000D03*
X111678600Y-73456000D03*
D13*
X119178600Y-62846000D03*
D14*
X119458600Y-58646000D03*
D15*
X124678600Y-62846000D03*
D14*
X129898600Y-58646000D03*
D13*
X130178600Y-62846000D03*
D16*
X124678600Y-68746000D03*
X119678600Y-66646000D03*
X129678600Y-66646000D03*
D13*
X137178600Y-68456000D03*
D14*
X137458600Y-64256000D03*
D15*
X142678600Y-68456000D03*
D14*
X147898600Y-64256000D03*
D13*
X148178600Y-68456000D03*
D16*
X142678600Y-74356000D03*
X137678600Y-72256000D03*
X147678600Y-72256000D03*
D13*
X155178600Y-70836000D03*
D14*
X155458600Y-66636000D03*
D15*
X160678600Y-70836000D03*
D14*
X165898600Y-66636000D03*
D13*
X166178600Y-70836000D03*
D16*
X160678600Y-76736000D03*
X155678600Y-74636000D03*
X165678600Y-74636000D03*
D13*
X83178600Y-98886000D03*
D14*
X83458600Y-94686000D03*
D15*
X88678600Y-98886000D03*
D14*
X93898600Y-94686000D03*
D13*
X94178600Y-98886000D03*
D16*
X88678600Y-104786000D03*
X83678600Y-102686000D03*
X93678600Y-102686000D03*
D13*
X101178600Y-86656000D03*
D14*
X101458600Y-82456000D03*
D15*
X106678600Y-86656000D03*
D14*
X111898600Y-82456000D03*
D13*
X112178600Y-86656000D03*
D16*
X106678600Y-92556000D03*
X101678600Y-90456000D03*
X111678600Y-90456000D03*
D13*
X119178600Y-79836000D03*
D14*
X119458600Y-75636000D03*
D15*
X124678600Y-79836000D03*
D14*
X129898600Y-75636000D03*
D13*
X130178600Y-79836000D03*
D16*
X124678600Y-85736000D03*
X119678600Y-83636000D03*
X129678600Y-83636000D03*
D13*
X137178600Y-85456000D03*
D14*
X137458600Y-81256000D03*
D15*
X142678600Y-85456000D03*
D14*
X147898600Y-81256000D03*
D13*
X148178600Y-85456000D03*
D16*
X142678600Y-91356000D03*
X137678600Y-89256000D03*
X147678600Y-89256000D03*
D13*
X155178600Y-87836000D03*
D14*
X155458600Y-83636000D03*
D15*
X160678600Y-87836000D03*
D14*
X165898600Y-83636000D03*
D13*
X166178600Y-87836000D03*
D16*
X160678600Y-93736000D03*
X155678600Y-91636000D03*
X165678600Y-91636000D03*
D13*
X83178600Y-115891000D03*
D14*
X83458600Y-111691000D03*
D15*
X88678600Y-115891000D03*
D14*
X93898600Y-111691000D03*
D13*
X94178600Y-115891000D03*
D16*
X88678600Y-121791000D03*
X83678600Y-119691000D03*
X93678600Y-119691000D03*
D13*
X101178600Y-103661000D03*
D14*
X101458600Y-99461000D03*
D15*
X106678600Y-103661000D03*
D14*
X111898600Y-99461000D03*
D13*
X112178600Y-103661000D03*
D16*
X106678600Y-109561000D03*
X101678600Y-107461000D03*
X111678600Y-107461000D03*
D13*
X119178600Y-96836000D03*
D14*
X119458600Y-92636000D03*
D15*
X124678600Y-96836000D03*
D14*
X129898600Y-92636000D03*
D13*
X130178600Y-96836000D03*
D16*
X124678600Y-102736000D03*
X119678600Y-100636000D03*
X129678600Y-100636000D03*
D13*
X137178600Y-102461000D03*
D14*
X137458600Y-98261000D03*
D15*
X142678600Y-102461000D03*
D14*
X147898600Y-98261000D03*
D13*
X148178600Y-102461000D03*
D16*
X142678600Y-108361000D03*
X137678600Y-106261000D03*
X147678600Y-106261000D03*
D13*
X155178600Y-104836000D03*
D14*
X155458600Y-100636000D03*
D15*
X160678600Y-104836000D03*
D14*
X165898600Y-100636000D03*
D13*
X166178600Y-104836000D03*
D16*
X160678600Y-110736000D03*
X155678600Y-108636000D03*
X165678600Y-108636000D03*
D17*
X186590000Y-81538000D03*
X186590000Y-84078000D03*
X186590000Y-86618000D03*
X186590000Y-89158000D03*
X186590000Y-91698000D03*
X186590000Y-94238000D03*
X186590000Y-96778000D03*
X186590000Y-99318000D03*
X186590000Y-101858000D03*
X186590000Y-104398000D03*
X186590000Y-106938000D03*
X186590000Y-109478000D03*
X171370000Y-109478000D03*
X171370000Y-106938000D03*
X171370000Y-104398000D03*
X171370000Y-101858000D03*
X171370000Y-99318000D03*
X171370000Y-96778000D03*
X171370000Y-94238000D03*
X171370000Y-91698000D03*
X171370000Y-89158000D03*
X171370000Y-86618000D03*
X171370000Y-84078000D03*
X171370000Y-81538000D03*
D18*
X171648600Y-113506000D03*
X171648600Y-120006000D03*
D19*
X185198600Y-116446000D03*
X178198600Y-116446000D03*
X185198600Y-118196000D03*
X178198600Y-118196000D03*
D20*
X174898600Y-116096000D03*
X174898600Y-118546000D03*
X183398600Y-114346000D03*
X183398600Y-120296000D03*
X180398600Y-114346000D03*
X180398600Y-120296000D03*
X176398600Y-114346000D03*
X176398600Y-120296000D03*
D13*
X147306008Y-121462495D03*
D14*
X146489427Y-125591853D03*
D15*
X152618600Y-122886000D03*
D14*
X156573693Y-128293924D03*
D13*
X157931192Y-124309505D03*
D16*
X154145632Y-117187038D03*
X148772483Y-117921387D03*
X158431742Y-120509577D03*
D13*
X166415460Y-127846000D03*
D14*
X164557947Y-131623307D03*
D15*
X171178600Y-130596000D03*
D14*
X173599253Y-136843307D03*
D13*
X175941740Y-133346000D03*
D16*
X174128600Y-125486450D03*
X168748473Y-124805103D03*
X177408727Y-129805103D03*
%LPD*%
M02*
