M48
; DRILL file {KiCad 7.0.7} date Wed 27 Sep 2023 19:22:42 BST
; FORMAT={-:-/ absolute / inch / decimal}
; #@! TF.CreationDate,2023-09-27T19:22:42+01:00
; #@! TF.GenerationSoftware,Kicad,Pcbnew,7.0.7
; #@! TF.FileFunction,NonPlated,1,2,NPTH
FMAT,2
INCH
; #@! TA.AperFunction,NonPlated,NPTH,ComponentDrill
T1C0.0390
; #@! TA.AperFunction,NonPlated,NPTH,ComponentDrill
T2C0.0472
; #@! TA.AperFunction,NonPlated,NPTH,ComponentDrill
T3C0.0670
; #@! TA.AperFunction,NonPlated,NPTH,ComponentDrill
T4C0.1350
%
G90
G05
T1
X3.2858Y-3.0585
X3.2858Y-3.7278
X3.2858Y-4.3973
X3.6968Y-3.0585
X3.6968Y-3.7278
X3.6968Y-4.3973
X3.9944Y-2.577
X3.9944Y-3.2463
X3.9944Y-3.9158
X4.4055Y-2.577
X4.4055Y-3.2463
X4.4055Y-3.9158
X4.7031Y-2.3089
X4.7031Y-2.9778
X4.7031Y-3.6471
X5.1141Y-2.3089
X5.1141Y-2.9778
X5.1141Y-3.6471
X5.4118Y-2.5298
X5.4118Y-3.1991
X5.4118Y-3.8685
X5.7673Y-4.9446
X5.8228Y-2.5298
X5.8228Y-3.1991
X5.8228Y-3.8685
X6.1204Y-2.6235
X6.1204Y-3.2928
X6.1204Y-3.962
X6.1643Y-5.0509
X6.4787Y-5.182
X6.5314Y-2.6235
X6.5314Y-3.2928
X6.5314Y-3.962
X6.8346Y-5.3875
T2
X7.0157Y-4.5845
X7.0157Y-4.6534
X7.2913Y-4.5845
X7.2913Y-4.6534
T3
X3.2747Y-3.2239
X3.2747Y-3.8931
X3.2747Y-4.5626
X3.7078Y-3.2239
X3.7078Y-3.8931
X3.7078Y-4.5626
X3.9834Y-2.7424
X3.9834Y-3.4117
X3.9834Y-4.0811
X4.4165Y-2.7424
X4.4165Y-3.4117
X4.4165Y-4.0811
X4.6921Y-2.4743
X4.6921Y-3.1431
X4.6921Y-3.8124
X5.1251Y-2.4743
X5.1251Y-3.1431
X5.1251Y-3.8124
X5.4007Y-2.6951
X5.4007Y-3.3644
X5.4007Y-4.0339
X5.7994Y-4.782
X5.8338Y-2.6951
X5.8338Y-3.3644
X5.8338Y-4.0339
X6.1094Y-2.7888
X6.1094Y-3.4581
X6.1094Y-4.1274
X6.2178Y-4.8941
X6.5425Y-2.7888
X6.5425Y-3.4581
X6.5425Y-4.1274
X6.5518Y-5.0333
X6.9268Y-5.2498
T4
X3.4913Y-3.2239
X3.4913Y-3.8931
X3.4913Y-4.5626
X4.1999Y-2.7424
X4.1999Y-3.4117
X4.1999Y-4.0811
X4.9086Y-2.4743
X4.9086Y-3.1431
X4.9086Y-3.8124
X5.6173Y-2.6951
X5.6173Y-3.3644
X5.6173Y-4.0339
X6.0086Y-4.838
X6.3259Y-2.7888
X6.3259Y-3.4581
X6.3259Y-4.1274
X6.7393Y-5.1416
T0
M30
