G04 #@! TF.GenerationSoftware,KiCad,Pcbnew,7.0.7*
G04 #@! TF.CreationDate,2023-09-27T19:23:00+01:00*
G04 #@! TF.ProjectId,ferris-sweep-compact,66657272-6973-42d7-9377-6565702d636f,0.1*
G04 #@! TF.SameCoordinates,Original*
G04 #@! TF.FileFunction,Legend,Top*
G04 #@! TF.FilePolarity,Positive*
%FSLAX46Y46*%
G04 Gerber Fmt 4.6, Leading zero omitted, Abs format (unit mm)*
G04 Created by KiCad (PCBNEW 7.0.7) date 2023-09-27 19:23:00*
%MOMM*%
%LPD*%
G01*
G04 APERTURE LIST*
%ADD10C,0.300000*%
%ADD11C,0.125000*%
%ADD12C,0.150000*%
%ADD13C,0.120000*%
%ADD14C,1.524000*%
%ADD15C,2.000000*%
%ADD16C,1.200000*%
%ADD17O,2.500000X1.700000*%
%ADD18C,2.101800*%
%ADD19C,1.390600*%
%ADD20C,3.829000*%
%ADD21C,2.432000*%
%ADD22C,1.924000*%
%ADD23C,2.400000*%
%ADD24C,1.600000*%
%ADD25O,2.900000X2.100000*%
G04 APERTURE END LIST*
D10*
X179072071Y-106503999D02*
X179143500Y-106575427D01*
X179143500Y-106575427D02*
X179214928Y-106789713D01*
X179214928Y-106789713D02*
X179214928Y-106932570D01*
X179214928Y-106932570D02*
X179143500Y-107146856D01*
X179143500Y-107146856D02*
X179000642Y-107289713D01*
X179000642Y-107289713D02*
X178857785Y-107361142D01*
X178857785Y-107361142D02*
X178572071Y-107432570D01*
X178572071Y-107432570D02*
X178357785Y-107432570D01*
X178357785Y-107432570D02*
X178072071Y-107361142D01*
X178072071Y-107361142D02*
X177929214Y-107289713D01*
X177929214Y-107289713D02*
X177786357Y-107146856D01*
X177786357Y-107146856D02*
X177714928Y-106932570D01*
X177714928Y-106932570D02*
X177714928Y-106789713D01*
X177714928Y-106789713D02*
X177786357Y-106575427D01*
X177786357Y-106575427D02*
X177857785Y-106503999D01*
X179214928Y-105646856D02*
X179143500Y-105789713D01*
X179143500Y-105789713D02*
X179072071Y-105861142D01*
X179072071Y-105861142D02*
X178929214Y-105932570D01*
X178929214Y-105932570D02*
X178500642Y-105932570D01*
X178500642Y-105932570D02*
X178357785Y-105861142D01*
X178357785Y-105861142D02*
X178286357Y-105789713D01*
X178286357Y-105789713D02*
X178214928Y-105646856D01*
X178214928Y-105646856D02*
X178214928Y-105432570D01*
X178214928Y-105432570D02*
X178286357Y-105289713D01*
X178286357Y-105289713D02*
X178357785Y-105218285D01*
X178357785Y-105218285D02*
X178500642Y-105146856D01*
X178500642Y-105146856D02*
X178929214Y-105146856D01*
X178929214Y-105146856D02*
X179072071Y-105218285D01*
X179072071Y-105218285D02*
X179143500Y-105289713D01*
X179143500Y-105289713D02*
X179214928Y-105432570D01*
X179214928Y-105432570D02*
X179214928Y-105646856D01*
X178214928Y-104503999D02*
X179214928Y-104503999D01*
X178357785Y-104503999D02*
X178286357Y-104432570D01*
X178286357Y-104432570D02*
X178214928Y-104289713D01*
X178214928Y-104289713D02*
X178214928Y-104075427D01*
X178214928Y-104075427D02*
X178286357Y-103932570D01*
X178286357Y-103932570D02*
X178429214Y-103861142D01*
X178429214Y-103861142D02*
X179214928Y-103861142D01*
X178214928Y-103361141D02*
X178214928Y-102789713D01*
X177714928Y-103146856D02*
X179000642Y-103146856D01*
X179000642Y-103146856D02*
X179143500Y-103075427D01*
X179143500Y-103075427D02*
X179214928Y-102932570D01*
X179214928Y-102932570D02*
X179214928Y-102789713D01*
X179214928Y-102289713D02*
X178214928Y-102289713D01*
X178500642Y-102289713D02*
X178357785Y-102218284D01*
X178357785Y-102218284D02*
X178286357Y-102146856D01*
X178286357Y-102146856D02*
X178214928Y-102003998D01*
X178214928Y-102003998D02*
X178214928Y-101861141D01*
X179214928Y-101146856D02*
X179143500Y-101289713D01*
X179143500Y-101289713D02*
X179072071Y-101361142D01*
X179072071Y-101361142D02*
X178929214Y-101432570D01*
X178929214Y-101432570D02*
X178500642Y-101432570D01*
X178500642Y-101432570D02*
X178357785Y-101361142D01*
X178357785Y-101361142D02*
X178286357Y-101289713D01*
X178286357Y-101289713D02*
X178214928Y-101146856D01*
X178214928Y-101146856D02*
X178214928Y-100932570D01*
X178214928Y-100932570D02*
X178286357Y-100789713D01*
X178286357Y-100789713D02*
X178357785Y-100718285D01*
X178357785Y-100718285D02*
X178500642Y-100646856D01*
X178500642Y-100646856D02*
X178929214Y-100646856D01*
X178929214Y-100646856D02*
X179072071Y-100718285D01*
X179072071Y-100718285D02*
X179143500Y-100789713D01*
X179143500Y-100789713D02*
X179214928Y-100932570D01*
X179214928Y-100932570D02*
X179214928Y-101146856D01*
X179214928Y-99789713D02*
X179143500Y-99932570D01*
X179143500Y-99932570D02*
X179000642Y-100003999D01*
X179000642Y-100003999D02*
X177714928Y-100003999D01*
X179214928Y-99003999D02*
X179143500Y-99146856D01*
X179143500Y-99146856D02*
X179000642Y-99218285D01*
X179000642Y-99218285D02*
X177714928Y-99218285D01*
X179143500Y-97861142D02*
X179214928Y-98003999D01*
X179214928Y-98003999D02*
X179214928Y-98289714D01*
X179214928Y-98289714D02*
X179143500Y-98432571D01*
X179143500Y-98432571D02*
X179000642Y-98503999D01*
X179000642Y-98503999D02*
X178429214Y-98503999D01*
X178429214Y-98503999D02*
X178286357Y-98432571D01*
X178286357Y-98432571D02*
X178214928Y-98289714D01*
X178214928Y-98289714D02*
X178214928Y-98003999D01*
X178214928Y-98003999D02*
X178286357Y-97861142D01*
X178286357Y-97861142D02*
X178429214Y-97789714D01*
X178429214Y-97789714D02*
X178572071Y-97789714D01*
X178572071Y-97789714D02*
X178714928Y-98503999D01*
X179214928Y-97146857D02*
X178214928Y-97146857D01*
X178500642Y-97146857D02*
X178357785Y-97075428D01*
X178357785Y-97075428D02*
X178286357Y-97004000D01*
X178286357Y-97004000D02*
X178214928Y-96861142D01*
X178214928Y-96861142D02*
X178214928Y-96718285D01*
X178429214Y-94575429D02*
X178429214Y-95075429D01*
X179214928Y-95075429D02*
X177714928Y-95075429D01*
X177714928Y-95075429D02*
X177714928Y-94361143D01*
X179214928Y-93146858D02*
X178429214Y-93146858D01*
X178429214Y-93146858D02*
X178286357Y-93218286D01*
X178286357Y-93218286D02*
X178214928Y-93361143D01*
X178214928Y-93361143D02*
X178214928Y-93646858D01*
X178214928Y-93646858D02*
X178286357Y-93789715D01*
X179143500Y-93146858D02*
X179214928Y-93289715D01*
X179214928Y-93289715D02*
X179214928Y-93646858D01*
X179214928Y-93646858D02*
X179143500Y-93789715D01*
X179143500Y-93789715D02*
X179000642Y-93861143D01*
X179000642Y-93861143D02*
X178857785Y-93861143D01*
X178857785Y-93861143D02*
X178714928Y-93789715D01*
X178714928Y-93789715D02*
X178643500Y-93646858D01*
X178643500Y-93646858D02*
X178643500Y-93289715D01*
X178643500Y-93289715D02*
X178572071Y-93146858D01*
X179143500Y-91789715D02*
X179214928Y-91932572D01*
X179214928Y-91932572D02*
X179214928Y-92218286D01*
X179214928Y-92218286D02*
X179143500Y-92361143D01*
X179143500Y-92361143D02*
X179072071Y-92432572D01*
X179072071Y-92432572D02*
X178929214Y-92504000D01*
X178929214Y-92504000D02*
X178500642Y-92504000D01*
X178500642Y-92504000D02*
X178357785Y-92432572D01*
X178357785Y-92432572D02*
X178286357Y-92361143D01*
X178286357Y-92361143D02*
X178214928Y-92218286D01*
X178214928Y-92218286D02*
X178214928Y-91932572D01*
X178214928Y-91932572D02*
X178286357Y-91789715D01*
X179143500Y-90575429D02*
X179214928Y-90718286D01*
X179214928Y-90718286D02*
X179214928Y-91004001D01*
X179214928Y-91004001D02*
X179143500Y-91146858D01*
X179143500Y-91146858D02*
X179000642Y-91218286D01*
X179000642Y-91218286D02*
X178429214Y-91218286D01*
X178429214Y-91218286D02*
X178286357Y-91146858D01*
X178286357Y-91146858D02*
X178214928Y-91004001D01*
X178214928Y-91004001D02*
X178214928Y-90718286D01*
X178214928Y-90718286D02*
X178286357Y-90575429D01*
X178286357Y-90575429D02*
X178429214Y-90504001D01*
X178429214Y-90504001D02*
X178572071Y-90504001D01*
X178572071Y-90504001D02*
X178714928Y-91218286D01*
X179214928Y-88718287D02*
X177714928Y-88718287D01*
X177714928Y-88718287D02*
X177714928Y-88361144D01*
X177714928Y-88361144D02*
X177786357Y-88146858D01*
X177786357Y-88146858D02*
X177929214Y-88004001D01*
X177929214Y-88004001D02*
X178072071Y-87932572D01*
X178072071Y-87932572D02*
X178357785Y-87861144D01*
X178357785Y-87861144D02*
X178572071Y-87861144D01*
X178572071Y-87861144D02*
X178857785Y-87932572D01*
X178857785Y-87932572D02*
X179000642Y-88004001D01*
X179000642Y-88004001D02*
X179143500Y-88146858D01*
X179143500Y-88146858D02*
X179214928Y-88361144D01*
X179214928Y-88361144D02*
X179214928Y-88718287D01*
X179214928Y-87004001D02*
X179143500Y-87146858D01*
X179143500Y-87146858D02*
X179072071Y-87218287D01*
X179072071Y-87218287D02*
X178929214Y-87289715D01*
X178929214Y-87289715D02*
X178500642Y-87289715D01*
X178500642Y-87289715D02*
X178357785Y-87218287D01*
X178357785Y-87218287D02*
X178286357Y-87146858D01*
X178286357Y-87146858D02*
X178214928Y-87004001D01*
X178214928Y-87004001D02*
X178214928Y-86789715D01*
X178214928Y-86789715D02*
X178286357Y-86646858D01*
X178286357Y-86646858D02*
X178357785Y-86575430D01*
X178357785Y-86575430D02*
X178500642Y-86504001D01*
X178500642Y-86504001D02*
X178929214Y-86504001D01*
X178929214Y-86504001D02*
X179072071Y-86575430D01*
X179072071Y-86575430D02*
X179143500Y-86646858D01*
X179143500Y-86646858D02*
X179214928Y-86789715D01*
X179214928Y-86789715D02*
X179214928Y-87004001D01*
X178214928Y-86004001D02*
X179214928Y-85718287D01*
X179214928Y-85718287D02*
X178500642Y-85432572D01*
X178500642Y-85432572D02*
X179214928Y-85146858D01*
X179214928Y-85146858D02*
X178214928Y-84861144D01*
X178214928Y-84289715D02*
X179214928Y-84289715D01*
X178357785Y-84289715D02*
X178286357Y-84218286D01*
X178286357Y-84218286D02*
X178214928Y-84075429D01*
X178214928Y-84075429D02*
X178214928Y-83861143D01*
X178214928Y-83861143D02*
X178286357Y-83718286D01*
X178286357Y-83718286D02*
X178429214Y-83646858D01*
X178429214Y-83646858D02*
X179214928Y-83646858D01*
D11*
X173450981Y-107306464D02*
X173068124Y-107306464D01*
X173259552Y-107306464D02*
X173259552Y-106556464D01*
X173259552Y-106556464D02*
X173195743Y-106663607D01*
X173195743Y-106663607D02*
X173131933Y-106735035D01*
X173131933Y-106735035D02*
X173068124Y-106770750D01*
X174025266Y-106556464D02*
X173897647Y-106556464D01*
X173897647Y-106556464D02*
X173833838Y-106592178D01*
X173833838Y-106592178D02*
X173801933Y-106627892D01*
X173801933Y-106627892D02*
X173738123Y-106735035D01*
X173738123Y-106735035D02*
X173706219Y-106877892D01*
X173706219Y-106877892D02*
X173706219Y-107163607D01*
X173706219Y-107163607D02*
X173738123Y-107235035D01*
X173738123Y-107235035D02*
X173770028Y-107270750D01*
X173770028Y-107270750D02*
X173833838Y-107306464D01*
X173833838Y-107306464D02*
X173961457Y-107306464D01*
X173961457Y-107306464D02*
X174025266Y-107270750D01*
X174025266Y-107270750D02*
X174057171Y-107235035D01*
X174057171Y-107235035D02*
X174089076Y-107163607D01*
X174089076Y-107163607D02*
X174089076Y-106985035D01*
X174089076Y-106985035D02*
X174057171Y-106913607D01*
X174057171Y-106913607D02*
X174025266Y-106877892D01*
X174025266Y-106877892D02*
X173961457Y-106842178D01*
X173961457Y-106842178D02*
X173833838Y-106842178D01*
X173833838Y-106842178D02*
X173770028Y-106877892D01*
X173770028Y-106877892D02*
X173738123Y-106913607D01*
X173738123Y-106913607D02*
X173706219Y-106985035D01*
X174854790Y-106520750D02*
X174280504Y-107485035D01*
X175301457Y-106913607D02*
X175397171Y-106949321D01*
X175397171Y-106949321D02*
X175429076Y-106985035D01*
X175429076Y-106985035D02*
X175460980Y-107056464D01*
X175460980Y-107056464D02*
X175460980Y-107163607D01*
X175460980Y-107163607D02*
X175429076Y-107235035D01*
X175429076Y-107235035D02*
X175397171Y-107270750D01*
X175397171Y-107270750D02*
X175333361Y-107306464D01*
X175333361Y-107306464D02*
X175078123Y-107306464D01*
X175078123Y-107306464D02*
X175078123Y-106556464D01*
X175078123Y-106556464D02*
X175301457Y-106556464D01*
X175301457Y-106556464D02*
X175365266Y-106592178D01*
X175365266Y-106592178D02*
X175397171Y-106627892D01*
X175397171Y-106627892D02*
X175429076Y-106699321D01*
X175429076Y-106699321D02*
X175429076Y-106770750D01*
X175429076Y-106770750D02*
X175397171Y-106842178D01*
X175397171Y-106842178D02*
X175365266Y-106877892D01*
X175365266Y-106877892D02*
X175301457Y-106913607D01*
X175301457Y-106913607D02*
X175078123Y-106913607D01*
X175716219Y-106627892D02*
X175748123Y-106592178D01*
X175748123Y-106592178D02*
X175811933Y-106556464D01*
X175811933Y-106556464D02*
X175971457Y-106556464D01*
X175971457Y-106556464D02*
X176035266Y-106592178D01*
X176035266Y-106592178D02*
X176067171Y-106627892D01*
X176067171Y-106627892D02*
X176099076Y-106699321D01*
X176099076Y-106699321D02*
X176099076Y-106770750D01*
X176099076Y-106770750D02*
X176067171Y-106877892D01*
X176067171Y-106877892D02*
X175684314Y-107306464D01*
X175684314Y-107306464D02*
X176099076Y-107306464D01*
X182550981Y-104213607D02*
X182774315Y-104213607D01*
X182870029Y-104606464D02*
X182550981Y-104606464D01*
X182550981Y-104606464D02*
X182550981Y-103856464D01*
X182550981Y-103856464D02*
X182870029Y-103856464D01*
X183444314Y-103856464D02*
X183316695Y-103856464D01*
X183316695Y-103856464D02*
X183252886Y-103892178D01*
X183252886Y-103892178D02*
X183220981Y-103927892D01*
X183220981Y-103927892D02*
X183157171Y-104035035D01*
X183157171Y-104035035D02*
X183125267Y-104177892D01*
X183125267Y-104177892D02*
X183125267Y-104463607D01*
X183125267Y-104463607D02*
X183157171Y-104535035D01*
X183157171Y-104535035D02*
X183189076Y-104570750D01*
X183189076Y-104570750D02*
X183252886Y-104606464D01*
X183252886Y-104606464D02*
X183380505Y-104606464D01*
X183380505Y-104606464D02*
X183444314Y-104570750D01*
X183444314Y-104570750D02*
X183476219Y-104535035D01*
X183476219Y-104535035D02*
X183508124Y-104463607D01*
X183508124Y-104463607D02*
X183508124Y-104285035D01*
X183508124Y-104285035D02*
X183476219Y-104213607D01*
X183476219Y-104213607D02*
X183444314Y-104177892D01*
X183444314Y-104177892D02*
X183380505Y-104142178D01*
X183380505Y-104142178D02*
X183252886Y-104142178D01*
X183252886Y-104142178D02*
X183189076Y-104177892D01*
X183189076Y-104177892D02*
X183157171Y-104213607D01*
X183157171Y-104213607D02*
X183125267Y-104285035D01*
X184273838Y-103820750D02*
X183699552Y-104785035D01*
X184433362Y-103856464D02*
X184880028Y-103856464D01*
X184880028Y-103856464D02*
X184592886Y-104606464D01*
X182742410Y-106763607D02*
X182838124Y-106799321D01*
X182838124Y-106799321D02*
X182870029Y-106835035D01*
X182870029Y-106835035D02*
X182901933Y-106906464D01*
X182901933Y-106906464D02*
X182901933Y-107013607D01*
X182901933Y-107013607D02*
X182870029Y-107085035D01*
X182870029Y-107085035D02*
X182838124Y-107120750D01*
X182838124Y-107120750D02*
X182774314Y-107156464D01*
X182774314Y-107156464D02*
X182519076Y-107156464D01*
X182519076Y-107156464D02*
X182519076Y-106406464D01*
X182519076Y-106406464D02*
X182742410Y-106406464D01*
X182742410Y-106406464D02*
X182806219Y-106442178D01*
X182806219Y-106442178D02*
X182838124Y-106477892D01*
X182838124Y-106477892D02*
X182870029Y-106549321D01*
X182870029Y-106549321D02*
X182870029Y-106620750D01*
X182870029Y-106620750D02*
X182838124Y-106692178D01*
X182838124Y-106692178D02*
X182806219Y-106727892D01*
X182806219Y-106727892D02*
X182742410Y-106763607D01*
X182742410Y-106763607D02*
X182519076Y-106763607D01*
X183476219Y-106656464D02*
X183476219Y-107156464D01*
X183316695Y-106370750D02*
X183157172Y-106906464D01*
X183157172Y-106906464D02*
X183571933Y-106906464D01*
X184305743Y-106370750D02*
X183731457Y-107335035D01*
X184624791Y-106727892D02*
X184560981Y-106692178D01*
X184560981Y-106692178D02*
X184529076Y-106656464D01*
X184529076Y-106656464D02*
X184497172Y-106585035D01*
X184497172Y-106585035D02*
X184497172Y-106549321D01*
X184497172Y-106549321D02*
X184529076Y-106477892D01*
X184529076Y-106477892D02*
X184560981Y-106442178D01*
X184560981Y-106442178D02*
X184624791Y-106406464D01*
X184624791Y-106406464D02*
X184752410Y-106406464D01*
X184752410Y-106406464D02*
X184816219Y-106442178D01*
X184816219Y-106442178D02*
X184848124Y-106477892D01*
X184848124Y-106477892D02*
X184880029Y-106549321D01*
X184880029Y-106549321D02*
X184880029Y-106585035D01*
X184880029Y-106585035D02*
X184848124Y-106656464D01*
X184848124Y-106656464D02*
X184816219Y-106692178D01*
X184816219Y-106692178D02*
X184752410Y-106727892D01*
X184752410Y-106727892D02*
X184624791Y-106727892D01*
X184624791Y-106727892D02*
X184560981Y-106763607D01*
X184560981Y-106763607D02*
X184529076Y-106799321D01*
X184529076Y-106799321D02*
X184497172Y-106870750D01*
X184497172Y-106870750D02*
X184497172Y-107013607D01*
X184497172Y-107013607D02*
X184529076Y-107085035D01*
X184529076Y-107085035D02*
X184560981Y-107120750D01*
X184560981Y-107120750D02*
X184624791Y-107156464D01*
X184624791Y-107156464D02*
X184752410Y-107156464D01*
X184752410Y-107156464D02*
X184816219Y-107120750D01*
X184816219Y-107120750D02*
X184848124Y-107085035D01*
X184848124Y-107085035D02*
X184880029Y-107013607D01*
X184880029Y-107013607D02*
X184880029Y-106870750D01*
X184880029Y-106870750D02*
X184848124Y-106799321D01*
X184848124Y-106799321D02*
X184816219Y-106763607D01*
X184816219Y-106763607D02*
X184752410Y-106727892D01*
X181394790Y-81906464D02*
X181394790Y-81156464D01*
X181394790Y-81156464D02*
X181554314Y-81156464D01*
X181554314Y-81156464D02*
X181650028Y-81192178D01*
X181650028Y-81192178D02*
X181713838Y-81263607D01*
X181713838Y-81263607D02*
X181745743Y-81335035D01*
X181745743Y-81335035D02*
X181777647Y-81477892D01*
X181777647Y-81477892D02*
X181777647Y-81585035D01*
X181777647Y-81585035D02*
X181745743Y-81727892D01*
X181745743Y-81727892D02*
X181713838Y-81799321D01*
X181713838Y-81799321D02*
X181650028Y-81870750D01*
X181650028Y-81870750D02*
X181554314Y-81906464D01*
X181554314Y-81906464D02*
X181394790Y-81906464D01*
X182000981Y-81156464D02*
X182415743Y-81156464D01*
X182415743Y-81156464D02*
X182192409Y-81442178D01*
X182192409Y-81442178D02*
X182288124Y-81442178D01*
X182288124Y-81442178D02*
X182351933Y-81477892D01*
X182351933Y-81477892D02*
X182383838Y-81513607D01*
X182383838Y-81513607D02*
X182415743Y-81585035D01*
X182415743Y-81585035D02*
X182415743Y-81763607D01*
X182415743Y-81763607D02*
X182383838Y-81835035D01*
X182383838Y-81835035D02*
X182351933Y-81870750D01*
X182351933Y-81870750D02*
X182288124Y-81906464D01*
X182288124Y-81906464D02*
X182096695Y-81906464D01*
X182096695Y-81906464D02*
X182032886Y-81870750D01*
X182032886Y-81870750D02*
X182000981Y-81835035D01*
X183181457Y-81120750D02*
X182607171Y-82085035D01*
X183309076Y-81156464D02*
X183691933Y-81156464D01*
X183500505Y-81906464D02*
X183500505Y-81156464D01*
X183851457Y-81156464D02*
X184298123Y-81906464D01*
X184298123Y-81156464D02*
X183851457Y-81906464D01*
X184680980Y-81156464D02*
X184744790Y-81156464D01*
X184744790Y-81156464D02*
X184808599Y-81192178D01*
X184808599Y-81192178D02*
X184840504Y-81227892D01*
X184840504Y-81227892D02*
X184872409Y-81299321D01*
X184872409Y-81299321D02*
X184904314Y-81442178D01*
X184904314Y-81442178D02*
X184904314Y-81620750D01*
X184904314Y-81620750D02*
X184872409Y-81763607D01*
X184872409Y-81763607D02*
X184840504Y-81835035D01*
X184840504Y-81835035D02*
X184808599Y-81870750D01*
X184808599Y-81870750D02*
X184744790Y-81906464D01*
X184744790Y-81906464D02*
X184680980Y-81906464D01*
X184680980Y-81906464D02*
X184617171Y-81870750D01*
X184617171Y-81870750D02*
X184585266Y-81835035D01*
X184585266Y-81835035D02*
X184553361Y-81763607D01*
X184553361Y-81763607D02*
X184521457Y-81620750D01*
X184521457Y-81620750D02*
X184521457Y-81442178D01*
X184521457Y-81442178D02*
X184553361Y-81299321D01*
X184553361Y-81299321D02*
X184585266Y-81227892D01*
X184585266Y-81227892D02*
X184617171Y-81192178D01*
X184617171Y-81192178D02*
X184680980Y-81156464D01*
X173450981Y-102206464D02*
X173068124Y-102206464D01*
X173259552Y-102206464D02*
X173259552Y-101456464D01*
X173259552Y-101456464D02*
X173195743Y-101563607D01*
X173195743Y-101563607D02*
X173131933Y-101635035D01*
X173131933Y-101635035D02*
X173068124Y-101670750D01*
X174057171Y-101456464D02*
X173738123Y-101456464D01*
X173738123Y-101456464D02*
X173706219Y-101813607D01*
X173706219Y-101813607D02*
X173738123Y-101777892D01*
X173738123Y-101777892D02*
X173801933Y-101742178D01*
X173801933Y-101742178D02*
X173961457Y-101742178D01*
X173961457Y-101742178D02*
X174025266Y-101777892D01*
X174025266Y-101777892D02*
X174057171Y-101813607D01*
X174057171Y-101813607D02*
X174089076Y-101885035D01*
X174089076Y-101885035D02*
X174089076Y-102063607D01*
X174089076Y-102063607D02*
X174057171Y-102135035D01*
X174057171Y-102135035D02*
X174025266Y-102170750D01*
X174025266Y-102170750D02*
X173961457Y-102206464D01*
X173961457Y-102206464D02*
X173801933Y-102206464D01*
X173801933Y-102206464D02*
X173738123Y-102170750D01*
X173738123Y-102170750D02*
X173706219Y-102135035D01*
X174854790Y-101420750D02*
X174280504Y-102385035D01*
X175301457Y-101813607D02*
X175397171Y-101849321D01*
X175397171Y-101849321D02*
X175429076Y-101885035D01*
X175429076Y-101885035D02*
X175460980Y-101956464D01*
X175460980Y-101956464D02*
X175460980Y-102063607D01*
X175460980Y-102063607D02*
X175429076Y-102135035D01*
X175429076Y-102135035D02*
X175397171Y-102170750D01*
X175397171Y-102170750D02*
X175333361Y-102206464D01*
X175333361Y-102206464D02*
X175078123Y-102206464D01*
X175078123Y-102206464D02*
X175078123Y-101456464D01*
X175078123Y-101456464D02*
X175301457Y-101456464D01*
X175301457Y-101456464D02*
X175365266Y-101492178D01*
X175365266Y-101492178D02*
X175397171Y-101527892D01*
X175397171Y-101527892D02*
X175429076Y-101599321D01*
X175429076Y-101599321D02*
X175429076Y-101670750D01*
X175429076Y-101670750D02*
X175397171Y-101742178D01*
X175397171Y-101742178D02*
X175365266Y-101777892D01*
X175365266Y-101777892D02*
X175301457Y-101813607D01*
X175301457Y-101813607D02*
X175078123Y-101813607D01*
X176099076Y-102206464D02*
X175716219Y-102206464D01*
X175907647Y-102206464D02*
X175907647Y-101456464D01*
X175907647Y-101456464D02*
X175843838Y-101563607D01*
X175843838Y-101563607D02*
X175780028Y-101635035D01*
X175780028Y-101635035D02*
X175716219Y-101670750D01*
D12*
X178094314Y-78689866D02*
X178856219Y-78689866D01*
D11*
X182901933Y-99435035D02*
X182870029Y-99470750D01*
X182870029Y-99470750D02*
X182774314Y-99506464D01*
X182774314Y-99506464D02*
X182710505Y-99506464D01*
X182710505Y-99506464D02*
X182614791Y-99470750D01*
X182614791Y-99470750D02*
X182550981Y-99399321D01*
X182550981Y-99399321D02*
X182519076Y-99327892D01*
X182519076Y-99327892D02*
X182487172Y-99185035D01*
X182487172Y-99185035D02*
X182487172Y-99077892D01*
X182487172Y-99077892D02*
X182519076Y-98935035D01*
X182519076Y-98935035D02*
X182550981Y-98863607D01*
X182550981Y-98863607D02*
X182614791Y-98792178D01*
X182614791Y-98792178D02*
X182710505Y-98756464D01*
X182710505Y-98756464D02*
X182774314Y-98756464D01*
X182774314Y-98756464D02*
X182870029Y-98792178D01*
X182870029Y-98792178D02*
X182901933Y-98827892D01*
X183476219Y-98756464D02*
X183348600Y-98756464D01*
X183348600Y-98756464D02*
X183284791Y-98792178D01*
X183284791Y-98792178D02*
X183252886Y-98827892D01*
X183252886Y-98827892D02*
X183189076Y-98935035D01*
X183189076Y-98935035D02*
X183157172Y-99077892D01*
X183157172Y-99077892D02*
X183157172Y-99363607D01*
X183157172Y-99363607D02*
X183189076Y-99435035D01*
X183189076Y-99435035D02*
X183220981Y-99470750D01*
X183220981Y-99470750D02*
X183284791Y-99506464D01*
X183284791Y-99506464D02*
X183412410Y-99506464D01*
X183412410Y-99506464D02*
X183476219Y-99470750D01*
X183476219Y-99470750D02*
X183508124Y-99435035D01*
X183508124Y-99435035D02*
X183540029Y-99363607D01*
X183540029Y-99363607D02*
X183540029Y-99185035D01*
X183540029Y-99185035D02*
X183508124Y-99113607D01*
X183508124Y-99113607D02*
X183476219Y-99077892D01*
X183476219Y-99077892D02*
X183412410Y-99042178D01*
X183412410Y-99042178D02*
X183284791Y-99042178D01*
X183284791Y-99042178D02*
X183220981Y-99077892D01*
X183220981Y-99077892D02*
X183189076Y-99113607D01*
X183189076Y-99113607D02*
X183157172Y-99185035D01*
X184305743Y-98720750D02*
X183731457Y-99685035D01*
X184848124Y-98756464D02*
X184529076Y-98756464D01*
X184529076Y-98756464D02*
X184497172Y-99113607D01*
X184497172Y-99113607D02*
X184529076Y-99077892D01*
X184529076Y-99077892D02*
X184592886Y-99042178D01*
X184592886Y-99042178D02*
X184752410Y-99042178D01*
X184752410Y-99042178D02*
X184816219Y-99077892D01*
X184816219Y-99077892D02*
X184848124Y-99113607D01*
X184848124Y-99113607D02*
X184880029Y-99185035D01*
X184880029Y-99185035D02*
X184880029Y-99363607D01*
X184880029Y-99363607D02*
X184848124Y-99435035D01*
X184848124Y-99435035D02*
X184816219Y-99470750D01*
X184816219Y-99470750D02*
X184752410Y-99506464D01*
X184752410Y-99506464D02*
X184592886Y-99506464D01*
X184592886Y-99506464D02*
X184529076Y-99470750D01*
X184529076Y-99470750D02*
X184497172Y-99435035D01*
X173147886Y-91892178D02*
X173466933Y-91892178D01*
X173084076Y-92106464D02*
X173307409Y-91356464D01*
X173307409Y-91356464D02*
X173530743Y-92106464D01*
X173690267Y-91356464D02*
X174105029Y-91356464D01*
X174105029Y-91356464D02*
X173881695Y-91642178D01*
X173881695Y-91642178D02*
X173977410Y-91642178D01*
X173977410Y-91642178D02*
X174041219Y-91677892D01*
X174041219Y-91677892D02*
X174073124Y-91713607D01*
X174073124Y-91713607D02*
X174105029Y-91785035D01*
X174105029Y-91785035D02*
X174105029Y-91963607D01*
X174105029Y-91963607D02*
X174073124Y-92035035D01*
X174073124Y-92035035D02*
X174041219Y-92070750D01*
X174041219Y-92070750D02*
X173977410Y-92106464D01*
X173977410Y-92106464D02*
X173785981Y-92106464D01*
X173785981Y-92106464D02*
X173722172Y-92070750D01*
X173722172Y-92070750D02*
X173690267Y-92035035D01*
X174870743Y-91320750D02*
X174296457Y-92285035D01*
X175317410Y-91713607D02*
X175094076Y-91713607D01*
X175094076Y-92106464D02*
X175094076Y-91356464D01*
X175094076Y-91356464D02*
X175413124Y-91356464D01*
X175955505Y-91606464D02*
X175955505Y-92106464D01*
X175795981Y-91320750D02*
X175636458Y-91856464D01*
X175636458Y-91856464D02*
X176051219Y-91856464D01*
X179960981Y-94420750D02*
X180056695Y-94456464D01*
X180056695Y-94456464D02*
X180216219Y-94456464D01*
X180216219Y-94456464D02*
X180280028Y-94420750D01*
X180280028Y-94420750D02*
X180311933Y-94385035D01*
X180311933Y-94385035D02*
X180343838Y-94313607D01*
X180343838Y-94313607D02*
X180343838Y-94242178D01*
X180343838Y-94242178D02*
X180311933Y-94170750D01*
X180311933Y-94170750D02*
X180280028Y-94135035D01*
X180280028Y-94135035D02*
X180216219Y-94099321D01*
X180216219Y-94099321D02*
X180088600Y-94063607D01*
X180088600Y-94063607D02*
X180024790Y-94027892D01*
X180024790Y-94027892D02*
X179992885Y-93992178D01*
X179992885Y-93992178D02*
X179960981Y-93920750D01*
X179960981Y-93920750D02*
X179960981Y-93849321D01*
X179960981Y-93849321D02*
X179992885Y-93777892D01*
X179992885Y-93777892D02*
X180024790Y-93742178D01*
X180024790Y-93742178D02*
X180088600Y-93706464D01*
X180088600Y-93706464D02*
X180248123Y-93706464D01*
X180248123Y-93706464D02*
X180343838Y-93742178D01*
X181013837Y-94385035D02*
X180981933Y-94420750D01*
X180981933Y-94420750D02*
X180886218Y-94456464D01*
X180886218Y-94456464D02*
X180822409Y-94456464D01*
X180822409Y-94456464D02*
X180726695Y-94420750D01*
X180726695Y-94420750D02*
X180662885Y-94349321D01*
X180662885Y-94349321D02*
X180630980Y-94277892D01*
X180630980Y-94277892D02*
X180599076Y-94135035D01*
X180599076Y-94135035D02*
X180599076Y-94027892D01*
X180599076Y-94027892D02*
X180630980Y-93885035D01*
X180630980Y-93885035D02*
X180662885Y-93813607D01*
X180662885Y-93813607D02*
X180726695Y-93742178D01*
X180726695Y-93742178D02*
X180822409Y-93706464D01*
X180822409Y-93706464D02*
X180886218Y-93706464D01*
X180886218Y-93706464D02*
X180981933Y-93742178D01*
X180981933Y-93742178D02*
X181013837Y-93777892D01*
X181620028Y-94456464D02*
X181300980Y-94456464D01*
X181300980Y-94456464D02*
X181300980Y-93706464D01*
X182321933Y-93670750D02*
X181747647Y-94635035D01*
X182545266Y-94456464D02*
X182545266Y-93706464D01*
X182545266Y-93706464D02*
X182704790Y-93706464D01*
X182704790Y-93706464D02*
X182800504Y-93742178D01*
X182800504Y-93742178D02*
X182864314Y-93813607D01*
X182864314Y-93813607D02*
X182896219Y-93885035D01*
X182896219Y-93885035D02*
X182928123Y-94027892D01*
X182928123Y-94027892D02*
X182928123Y-94135035D01*
X182928123Y-94135035D02*
X182896219Y-94277892D01*
X182896219Y-94277892D02*
X182864314Y-94349321D01*
X182864314Y-94349321D02*
X182800504Y-94420750D01*
X182800504Y-94420750D02*
X182704790Y-94456464D01*
X182704790Y-94456464D02*
X182545266Y-94456464D01*
X183342885Y-93706464D02*
X183406695Y-93706464D01*
X183406695Y-93706464D02*
X183470504Y-93742178D01*
X183470504Y-93742178D02*
X183502409Y-93777892D01*
X183502409Y-93777892D02*
X183534314Y-93849321D01*
X183534314Y-93849321D02*
X183566219Y-93992178D01*
X183566219Y-93992178D02*
X183566219Y-94170750D01*
X183566219Y-94170750D02*
X183534314Y-94313607D01*
X183534314Y-94313607D02*
X183502409Y-94385035D01*
X183502409Y-94385035D02*
X183470504Y-94420750D01*
X183470504Y-94420750D02*
X183406695Y-94456464D01*
X183406695Y-94456464D02*
X183342885Y-94456464D01*
X183342885Y-94456464D02*
X183279076Y-94420750D01*
X183279076Y-94420750D02*
X183247171Y-94385035D01*
X183247171Y-94385035D02*
X183215266Y-94313607D01*
X183215266Y-94313607D02*
X183183362Y-94170750D01*
X183183362Y-94170750D02*
X183183362Y-93992178D01*
X183183362Y-93992178D02*
X183215266Y-93849321D01*
X183215266Y-93849321D02*
X183247171Y-93777892D01*
X183247171Y-93777892D02*
X183279076Y-93742178D01*
X183279076Y-93742178D02*
X183342885Y-93706464D01*
X184331933Y-93670750D02*
X183757647Y-94635035D01*
X184491457Y-93706464D02*
X184906219Y-93706464D01*
X184906219Y-93706464D02*
X184682885Y-93992178D01*
X184682885Y-93992178D02*
X184778600Y-93992178D01*
X184778600Y-93992178D02*
X184842409Y-94027892D01*
X184842409Y-94027892D02*
X184874314Y-94063607D01*
X184874314Y-94063607D02*
X184906219Y-94135035D01*
X184906219Y-94135035D02*
X184906219Y-94313607D01*
X184906219Y-94313607D02*
X184874314Y-94385035D01*
X184874314Y-94385035D02*
X184842409Y-94420750D01*
X184842409Y-94420750D02*
X184778600Y-94456464D01*
X184778600Y-94456464D02*
X184587171Y-94456464D01*
X184587171Y-94456464D02*
X184523362Y-94420750D01*
X184523362Y-94420750D02*
X184491457Y-94385035D01*
X173147886Y-99442178D02*
X173466933Y-99442178D01*
X173084076Y-99656464D02*
X173307409Y-98906464D01*
X173307409Y-98906464D02*
X173530743Y-99656464D01*
X173881695Y-98906464D02*
X173945505Y-98906464D01*
X173945505Y-98906464D02*
X174009314Y-98942178D01*
X174009314Y-98942178D02*
X174041219Y-98977892D01*
X174041219Y-98977892D02*
X174073124Y-99049321D01*
X174073124Y-99049321D02*
X174105029Y-99192178D01*
X174105029Y-99192178D02*
X174105029Y-99370750D01*
X174105029Y-99370750D02*
X174073124Y-99513607D01*
X174073124Y-99513607D02*
X174041219Y-99585035D01*
X174041219Y-99585035D02*
X174009314Y-99620750D01*
X174009314Y-99620750D02*
X173945505Y-99656464D01*
X173945505Y-99656464D02*
X173881695Y-99656464D01*
X173881695Y-99656464D02*
X173817886Y-99620750D01*
X173817886Y-99620750D02*
X173785981Y-99585035D01*
X173785981Y-99585035D02*
X173754076Y-99513607D01*
X173754076Y-99513607D02*
X173722172Y-99370750D01*
X173722172Y-99370750D02*
X173722172Y-99192178D01*
X173722172Y-99192178D02*
X173754076Y-99049321D01*
X173754076Y-99049321D02*
X173785981Y-98977892D01*
X173785981Y-98977892D02*
X173817886Y-98942178D01*
X173817886Y-98942178D02*
X173881695Y-98906464D01*
X174870743Y-98870750D02*
X174296457Y-99835035D01*
X175317410Y-99263607D02*
X175094076Y-99263607D01*
X175094076Y-99656464D02*
X175094076Y-98906464D01*
X175094076Y-98906464D02*
X175413124Y-98906464D01*
X175604553Y-98906464D02*
X176051219Y-98906464D01*
X176051219Y-98906464D02*
X175764077Y-99656464D01*
D13*
X176482171Y-77406724D02*
X176482171Y-76656724D01*
X176482171Y-76656724D02*
X176732171Y-77192438D01*
X176732171Y-77192438D02*
X176982171Y-76656724D01*
X176982171Y-76656724D02*
X176982171Y-77406724D01*
X177339314Y-77406724D02*
X177339314Y-76906724D01*
X177339314Y-76656724D02*
X177303600Y-76692438D01*
X177303600Y-76692438D02*
X177339314Y-76728152D01*
X177339314Y-76728152D02*
X177375028Y-76692438D01*
X177375028Y-76692438D02*
X177339314Y-76656724D01*
X177339314Y-76656724D02*
X177339314Y-76728152D01*
X178017886Y-77371010D02*
X177946457Y-77406724D01*
X177946457Y-77406724D02*
X177803600Y-77406724D01*
X177803600Y-77406724D02*
X177732171Y-77371010D01*
X177732171Y-77371010D02*
X177696457Y-77335295D01*
X177696457Y-77335295D02*
X177660743Y-77263867D01*
X177660743Y-77263867D02*
X177660743Y-77049581D01*
X177660743Y-77049581D02*
X177696457Y-76978152D01*
X177696457Y-76978152D02*
X177732171Y-76942438D01*
X177732171Y-76942438D02*
X177803600Y-76906724D01*
X177803600Y-76906724D02*
X177946457Y-76906724D01*
X177946457Y-76906724D02*
X178017886Y-76942438D01*
X178339314Y-77406724D02*
X178339314Y-76906724D01*
X178339314Y-77049581D02*
X178375028Y-76978152D01*
X178375028Y-76978152D02*
X178410743Y-76942438D01*
X178410743Y-76942438D02*
X178482171Y-76906724D01*
X178482171Y-76906724D02*
X178553600Y-76906724D01*
X178910743Y-77406724D02*
X178839314Y-77371010D01*
X178839314Y-77371010D02*
X178803600Y-77335295D01*
X178803600Y-77335295D02*
X178767886Y-77263867D01*
X178767886Y-77263867D02*
X178767886Y-77049581D01*
X178767886Y-77049581D02*
X178803600Y-76978152D01*
X178803600Y-76978152D02*
X178839314Y-76942438D01*
X178839314Y-76942438D02*
X178910743Y-76906724D01*
X178910743Y-76906724D02*
X179017886Y-76906724D01*
X179017886Y-76906724D02*
X179089314Y-76942438D01*
X179089314Y-76942438D02*
X179125029Y-76978152D01*
X179125029Y-76978152D02*
X179160743Y-77049581D01*
X179160743Y-77049581D02*
X179160743Y-77263867D01*
X179160743Y-77263867D02*
X179125029Y-77335295D01*
X179125029Y-77335295D02*
X179089314Y-77371010D01*
X179089314Y-77371010D02*
X179017886Y-77406724D01*
X179017886Y-77406724D02*
X178910743Y-77406724D01*
X179482171Y-76656724D02*
X179482171Y-77263867D01*
X179482171Y-77263867D02*
X179517885Y-77335295D01*
X179517885Y-77335295D02*
X179553600Y-77371010D01*
X179553600Y-77371010D02*
X179625028Y-77406724D01*
X179625028Y-77406724D02*
X179767885Y-77406724D01*
X179767885Y-77406724D02*
X179839314Y-77371010D01*
X179839314Y-77371010D02*
X179875028Y-77335295D01*
X179875028Y-77335295D02*
X179910742Y-77263867D01*
X179910742Y-77263867D02*
X179910742Y-76656724D01*
X180232171Y-77371010D02*
X180339314Y-77406724D01*
X180339314Y-77406724D02*
X180517885Y-77406724D01*
X180517885Y-77406724D02*
X180589314Y-77371010D01*
X180589314Y-77371010D02*
X180625028Y-77335295D01*
X180625028Y-77335295D02*
X180660742Y-77263867D01*
X180660742Y-77263867D02*
X180660742Y-77192438D01*
X180660742Y-77192438D02*
X180625028Y-77121010D01*
X180625028Y-77121010D02*
X180589314Y-77085295D01*
X180589314Y-77085295D02*
X180517885Y-77049581D01*
X180517885Y-77049581D02*
X180375028Y-77013867D01*
X180375028Y-77013867D02*
X180303599Y-76978152D01*
X180303599Y-76978152D02*
X180267885Y-76942438D01*
X180267885Y-76942438D02*
X180232171Y-76871010D01*
X180232171Y-76871010D02*
X180232171Y-76799581D01*
X180232171Y-76799581D02*
X180267885Y-76728152D01*
X180267885Y-76728152D02*
X180303599Y-76692438D01*
X180303599Y-76692438D02*
X180375028Y-76656724D01*
X180375028Y-76656724D02*
X180553599Y-76656724D01*
X180553599Y-76656724D02*
X180660742Y-76692438D01*
X181232171Y-77013867D02*
X181339314Y-77049581D01*
X181339314Y-77049581D02*
X181375028Y-77085295D01*
X181375028Y-77085295D02*
X181410742Y-77156724D01*
X181410742Y-77156724D02*
X181410742Y-77263867D01*
X181410742Y-77263867D02*
X181375028Y-77335295D01*
X181375028Y-77335295D02*
X181339314Y-77371010D01*
X181339314Y-77371010D02*
X181267885Y-77406724D01*
X181267885Y-77406724D02*
X180982171Y-77406724D01*
X180982171Y-77406724D02*
X180982171Y-76656724D01*
X180982171Y-76656724D02*
X181232171Y-76656724D01*
X181232171Y-76656724D02*
X181303600Y-76692438D01*
X181303600Y-76692438D02*
X181339314Y-76728152D01*
X181339314Y-76728152D02*
X181375028Y-76799581D01*
X181375028Y-76799581D02*
X181375028Y-76871010D01*
X181375028Y-76871010D02*
X181339314Y-76942438D01*
X181339314Y-76942438D02*
X181303600Y-76978152D01*
X181303600Y-76978152D02*
X181232171Y-77013867D01*
X181232171Y-77013867D02*
X180982171Y-77013867D01*
D11*
X183423124Y-88742178D02*
X183359314Y-88706464D01*
X183359314Y-88706464D02*
X183263600Y-88706464D01*
X183263600Y-88706464D02*
X183167886Y-88742178D01*
X183167886Y-88742178D02*
X183104076Y-88813607D01*
X183104076Y-88813607D02*
X183072171Y-88885035D01*
X183072171Y-88885035D02*
X183040267Y-89027892D01*
X183040267Y-89027892D02*
X183040267Y-89135035D01*
X183040267Y-89135035D02*
X183072171Y-89277892D01*
X183072171Y-89277892D02*
X183104076Y-89349321D01*
X183104076Y-89349321D02*
X183167886Y-89420750D01*
X183167886Y-89420750D02*
X183263600Y-89456464D01*
X183263600Y-89456464D02*
X183327409Y-89456464D01*
X183327409Y-89456464D02*
X183423124Y-89420750D01*
X183423124Y-89420750D02*
X183455028Y-89385035D01*
X183455028Y-89385035D02*
X183455028Y-89135035D01*
X183455028Y-89135035D02*
X183327409Y-89135035D01*
X183742171Y-89456464D02*
X183742171Y-88706464D01*
X183742171Y-88706464D02*
X184125028Y-89456464D01*
X184125028Y-89456464D02*
X184125028Y-88706464D01*
X184444076Y-89456464D02*
X184444076Y-88706464D01*
X184444076Y-88706464D02*
X184603600Y-88706464D01*
X184603600Y-88706464D02*
X184699314Y-88742178D01*
X184699314Y-88742178D02*
X184763124Y-88813607D01*
X184763124Y-88813607D02*
X184795029Y-88885035D01*
X184795029Y-88885035D02*
X184826933Y-89027892D01*
X184826933Y-89027892D02*
X184826933Y-89135035D01*
X184826933Y-89135035D02*
X184795029Y-89277892D01*
X184795029Y-89277892D02*
X184763124Y-89349321D01*
X184763124Y-89349321D02*
X184699314Y-89420750D01*
X184699314Y-89420750D02*
X184603600Y-89456464D01*
X184603600Y-89456464D02*
X184444076Y-89456464D01*
X173450981Y-104756464D02*
X173068124Y-104756464D01*
X173259552Y-104756464D02*
X173259552Y-104006464D01*
X173259552Y-104006464D02*
X173195743Y-104113607D01*
X173195743Y-104113607D02*
X173131933Y-104185035D01*
X173131933Y-104185035D02*
X173068124Y-104220750D01*
X174025266Y-104256464D02*
X174025266Y-104756464D01*
X173865742Y-103970750D02*
X173706219Y-104506464D01*
X173706219Y-104506464D02*
X174120980Y-104506464D01*
X174854790Y-103970750D02*
X174280504Y-104935035D01*
X175301457Y-104363607D02*
X175397171Y-104399321D01*
X175397171Y-104399321D02*
X175429076Y-104435035D01*
X175429076Y-104435035D02*
X175460980Y-104506464D01*
X175460980Y-104506464D02*
X175460980Y-104613607D01*
X175460980Y-104613607D02*
X175429076Y-104685035D01*
X175429076Y-104685035D02*
X175397171Y-104720750D01*
X175397171Y-104720750D02*
X175333361Y-104756464D01*
X175333361Y-104756464D02*
X175078123Y-104756464D01*
X175078123Y-104756464D02*
X175078123Y-104006464D01*
X175078123Y-104006464D02*
X175301457Y-104006464D01*
X175301457Y-104006464D02*
X175365266Y-104042178D01*
X175365266Y-104042178D02*
X175397171Y-104077892D01*
X175397171Y-104077892D02*
X175429076Y-104149321D01*
X175429076Y-104149321D02*
X175429076Y-104220750D01*
X175429076Y-104220750D02*
X175397171Y-104292178D01*
X175397171Y-104292178D02*
X175365266Y-104327892D01*
X175365266Y-104327892D02*
X175301457Y-104363607D01*
X175301457Y-104363607D02*
X175078123Y-104363607D01*
X175684314Y-104006464D02*
X176099076Y-104006464D01*
X176099076Y-104006464D02*
X175875742Y-104292178D01*
X175875742Y-104292178D02*
X175971457Y-104292178D01*
X175971457Y-104292178D02*
X176035266Y-104327892D01*
X176035266Y-104327892D02*
X176067171Y-104363607D01*
X176067171Y-104363607D02*
X176099076Y-104435035D01*
X176099076Y-104435035D02*
X176099076Y-104613607D01*
X176099076Y-104613607D02*
X176067171Y-104685035D01*
X176067171Y-104685035D02*
X176035266Y-104720750D01*
X176035266Y-104720750D02*
X175971457Y-104756464D01*
X175971457Y-104756464D02*
X175780028Y-104756464D01*
X175780028Y-104756464D02*
X175716219Y-104720750D01*
X175716219Y-104720750D02*
X175684314Y-104685035D01*
X181315028Y-84456464D02*
X181315028Y-83706464D01*
X181315028Y-83706464D02*
X181474552Y-83706464D01*
X181474552Y-83706464D02*
X181570266Y-83742178D01*
X181570266Y-83742178D02*
X181634076Y-83813607D01*
X181634076Y-83813607D02*
X181665981Y-83885035D01*
X181665981Y-83885035D02*
X181697885Y-84027892D01*
X181697885Y-84027892D02*
X181697885Y-84135035D01*
X181697885Y-84135035D02*
X181665981Y-84277892D01*
X181665981Y-84277892D02*
X181634076Y-84349321D01*
X181634076Y-84349321D02*
X181570266Y-84420750D01*
X181570266Y-84420750D02*
X181474552Y-84456464D01*
X181474552Y-84456464D02*
X181315028Y-84456464D01*
X181953124Y-83777892D02*
X181985028Y-83742178D01*
X181985028Y-83742178D02*
X182048838Y-83706464D01*
X182048838Y-83706464D02*
X182208362Y-83706464D01*
X182208362Y-83706464D02*
X182272171Y-83742178D01*
X182272171Y-83742178D02*
X182304076Y-83777892D01*
X182304076Y-83777892D02*
X182335981Y-83849321D01*
X182335981Y-83849321D02*
X182335981Y-83920750D01*
X182335981Y-83920750D02*
X182304076Y-84027892D01*
X182304076Y-84027892D02*
X181921219Y-84456464D01*
X181921219Y-84456464D02*
X182335981Y-84456464D01*
X183101695Y-83670750D02*
X182527409Y-84635035D01*
X183707885Y-84456464D02*
X183484552Y-84099321D01*
X183325028Y-84456464D02*
X183325028Y-83706464D01*
X183325028Y-83706464D02*
X183580266Y-83706464D01*
X183580266Y-83706464D02*
X183644076Y-83742178D01*
X183644076Y-83742178D02*
X183675981Y-83777892D01*
X183675981Y-83777892D02*
X183707885Y-83849321D01*
X183707885Y-83849321D02*
X183707885Y-83956464D01*
X183707885Y-83956464D02*
X183675981Y-84027892D01*
X183675981Y-84027892D02*
X183644076Y-84063607D01*
X183644076Y-84063607D02*
X183580266Y-84099321D01*
X183580266Y-84099321D02*
X183325028Y-84099321D01*
X183931219Y-83706464D02*
X184377885Y-84456464D01*
X184377885Y-83706464D02*
X183931219Y-84456464D01*
X184984076Y-84456464D02*
X184601219Y-84456464D01*
X184792647Y-84456464D02*
X184792647Y-83706464D01*
X184792647Y-83706464D02*
X184728838Y-83813607D01*
X184728838Y-83813607D02*
X184665028Y-83885035D01*
X184665028Y-83885035D02*
X184601219Y-83920750D01*
X182519076Y-102056464D02*
X182519076Y-101306464D01*
X182519076Y-101306464D02*
X182678600Y-101306464D01*
X182678600Y-101306464D02*
X182774314Y-101342178D01*
X182774314Y-101342178D02*
X182838124Y-101413607D01*
X182838124Y-101413607D02*
X182870029Y-101485035D01*
X182870029Y-101485035D02*
X182901933Y-101627892D01*
X182901933Y-101627892D02*
X182901933Y-101735035D01*
X182901933Y-101735035D02*
X182870029Y-101877892D01*
X182870029Y-101877892D02*
X182838124Y-101949321D01*
X182838124Y-101949321D02*
X182774314Y-102020750D01*
X182774314Y-102020750D02*
X182678600Y-102056464D01*
X182678600Y-102056464D02*
X182519076Y-102056464D01*
X183125267Y-101306464D02*
X183571933Y-101306464D01*
X183571933Y-101306464D02*
X183284791Y-102056464D01*
X184305743Y-101270750D02*
X183731457Y-102235035D01*
X184816219Y-101306464D02*
X184688600Y-101306464D01*
X184688600Y-101306464D02*
X184624791Y-101342178D01*
X184624791Y-101342178D02*
X184592886Y-101377892D01*
X184592886Y-101377892D02*
X184529076Y-101485035D01*
X184529076Y-101485035D02*
X184497172Y-101627892D01*
X184497172Y-101627892D02*
X184497172Y-101913607D01*
X184497172Y-101913607D02*
X184529076Y-101985035D01*
X184529076Y-101985035D02*
X184560981Y-102020750D01*
X184560981Y-102020750D02*
X184624791Y-102056464D01*
X184624791Y-102056464D02*
X184752410Y-102056464D01*
X184752410Y-102056464D02*
X184816219Y-102020750D01*
X184816219Y-102020750D02*
X184848124Y-101985035D01*
X184848124Y-101985035D02*
X184880029Y-101913607D01*
X184880029Y-101913607D02*
X184880029Y-101735035D01*
X184880029Y-101735035D02*
X184848124Y-101663607D01*
X184848124Y-101663607D02*
X184816219Y-101627892D01*
X184816219Y-101627892D02*
X184752410Y-101592178D01*
X184752410Y-101592178D02*
X184624791Y-101592178D01*
X184624791Y-101592178D02*
X184560981Y-101627892D01*
X184560981Y-101627892D02*
X184529076Y-101663607D01*
X184529076Y-101663607D02*
X184497172Y-101735035D01*
X179945029Y-91920750D02*
X180040743Y-91956464D01*
X180040743Y-91956464D02*
X180200267Y-91956464D01*
X180200267Y-91956464D02*
X180264076Y-91920750D01*
X180264076Y-91920750D02*
X180295981Y-91885035D01*
X180295981Y-91885035D02*
X180327886Y-91813607D01*
X180327886Y-91813607D02*
X180327886Y-91742178D01*
X180327886Y-91742178D02*
X180295981Y-91670750D01*
X180295981Y-91670750D02*
X180264076Y-91635035D01*
X180264076Y-91635035D02*
X180200267Y-91599321D01*
X180200267Y-91599321D02*
X180072648Y-91563607D01*
X180072648Y-91563607D02*
X180008838Y-91527892D01*
X180008838Y-91527892D02*
X179976933Y-91492178D01*
X179976933Y-91492178D02*
X179945029Y-91420750D01*
X179945029Y-91420750D02*
X179945029Y-91349321D01*
X179945029Y-91349321D02*
X179976933Y-91277892D01*
X179976933Y-91277892D02*
X180008838Y-91242178D01*
X180008838Y-91242178D02*
X180072648Y-91206464D01*
X180072648Y-91206464D02*
X180232171Y-91206464D01*
X180232171Y-91206464D02*
X180327886Y-91242178D01*
X180615028Y-91956464D02*
X180615028Y-91206464D01*
X180615028Y-91206464D02*
X180774552Y-91206464D01*
X180774552Y-91206464D02*
X180870266Y-91242178D01*
X180870266Y-91242178D02*
X180934076Y-91313607D01*
X180934076Y-91313607D02*
X180965981Y-91385035D01*
X180965981Y-91385035D02*
X180997885Y-91527892D01*
X180997885Y-91527892D02*
X180997885Y-91635035D01*
X180997885Y-91635035D02*
X180965981Y-91777892D01*
X180965981Y-91777892D02*
X180934076Y-91849321D01*
X180934076Y-91849321D02*
X180870266Y-91920750D01*
X180870266Y-91920750D02*
X180774552Y-91956464D01*
X180774552Y-91956464D02*
X180615028Y-91956464D01*
X181253124Y-91742178D02*
X181572171Y-91742178D01*
X181189314Y-91956464D02*
X181412647Y-91206464D01*
X181412647Y-91206464D02*
X181635981Y-91956464D01*
X182337886Y-91170750D02*
X181763600Y-92135035D01*
X182561219Y-91956464D02*
X182561219Y-91206464D01*
X182561219Y-91206464D02*
X182720743Y-91206464D01*
X182720743Y-91206464D02*
X182816457Y-91242178D01*
X182816457Y-91242178D02*
X182880267Y-91313607D01*
X182880267Y-91313607D02*
X182912172Y-91385035D01*
X182912172Y-91385035D02*
X182944076Y-91527892D01*
X182944076Y-91527892D02*
X182944076Y-91635035D01*
X182944076Y-91635035D02*
X182912172Y-91777892D01*
X182912172Y-91777892D02*
X182880267Y-91849321D01*
X182880267Y-91849321D02*
X182816457Y-91920750D01*
X182816457Y-91920750D02*
X182720743Y-91956464D01*
X182720743Y-91956464D02*
X182561219Y-91956464D01*
X183582172Y-91956464D02*
X183199315Y-91956464D01*
X183390743Y-91956464D02*
X183390743Y-91206464D01*
X183390743Y-91206464D02*
X183326934Y-91313607D01*
X183326934Y-91313607D02*
X183263124Y-91385035D01*
X183263124Y-91385035D02*
X183199315Y-91420750D01*
X184347886Y-91170750D02*
X183773600Y-92135035D01*
X184539315Y-91277892D02*
X184571219Y-91242178D01*
X184571219Y-91242178D02*
X184635029Y-91206464D01*
X184635029Y-91206464D02*
X184794553Y-91206464D01*
X184794553Y-91206464D02*
X184858362Y-91242178D01*
X184858362Y-91242178D02*
X184890267Y-91277892D01*
X184890267Y-91277892D02*
X184922172Y-91349321D01*
X184922172Y-91349321D02*
X184922172Y-91420750D01*
X184922172Y-91420750D02*
X184890267Y-91527892D01*
X184890267Y-91527892D02*
X184507410Y-91956464D01*
X184507410Y-91956464D02*
X184922172Y-91956464D01*
X173147886Y-96892178D02*
X173466933Y-96892178D01*
X173084076Y-97106464D02*
X173307409Y-96356464D01*
X173307409Y-96356464D02*
X173530743Y-97106464D01*
X174105029Y-97106464D02*
X173722172Y-97106464D01*
X173913600Y-97106464D02*
X173913600Y-96356464D01*
X173913600Y-96356464D02*
X173849791Y-96463607D01*
X173849791Y-96463607D02*
X173785981Y-96535035D01*
X173785981Y-96535035D02*
X173722172Y-96570750D01*
X174870743Y-96320750D02*
X174296457Y-97285035D01*
X175317410Y-96713607D02*
X175094076Y-96713607D01*
X175094076Y-97106464D02*
X175094076Y-96356464D01*
X175094076Y-96356464D02*
X175413124Y-96356464D01*
X175955505Y-96356464D02*
X175827886Y-96356464D01*
X175827886Y-96356464D02*
X175764077Y-96392178D01*
X175764077Y-96392178D02*
X175732172Y-96427892D01*
X175732172Y-96427892D02*
X175668362Y-96535035D01*
X175668362Y-96535035D02*
X175636458Y-96677892D01*
X175636458Y-96677892D02*
X175636458Y-96963607D01*
X175636458Y-96963607D02*
X175668362Y-97035035D01*
X175668362Y-97035035D02*
X175700267Y-97070750D01*
X175700267Y-97070750D02*
X175764077Y-97106464D01*
X175764077Y-97106464D02*
X175891696Y-97106464D01*
X175891696Y-97106464D02*
X175955505Y-97070750D01*
X175955505Y-97070750D02*
X175987410Y-97035035D01*
X175987410Y-97035035D02*
X176019315Y-96963607D01*
X176019315Y-96963607D02*
X176019315Y-96785035D01*
X176019315Y-96785035D02*
X175987410Y-96713607D01*
X175987410Y-96713607D02*
X175955505Y-96677892D01*
X175955505Y-96677892D02*
X175891696Y-96642178D01*
X175891696Y-96642178D02*
X175764077Y-96642178D01*
X175764077Y-96642178D02*
X175700267Y-96677892D01*
X175700267Y-96677892D02*
X175668362Y-96713607D01*
X175668362Y-96713607D02*
X175636458Y-96785035D01*
X173450981Y-109806464D02*
X173068124Y-109806464D01*
X173259552Y-109806464D02*
X173259552Y-109056464D01*
X173259552Y-109056464D02*
X173195743Y-109163607D01*
X173195743Y-109163607D02*
X173131933Y-109235035D01*
X173131933Y-109235035D02*
X173068124Y-109270750D01*
X173865742Y-109056464D02*
X173929552Y-109056464D01*
X173929552Y-109056464D02*
X173993361Y-109092178D01*
X173993361Y-109092178D02*
X174025266Y-109127892D01*
X174025266Y-109127892D02*
X174057171Y-109199321D01*
X174057171Y-109199321D02*
X174089076Y-109342178D01*
X174089076Y-109342178D02*
X174089076Y-109520750D01*
X174089076Y-109520750D02*
X174057171Y-109663607D01*
X174057171Y-109663607D02*
X174025266Y-109735035D01*
X174025266Y-109735035D02*
X173993361Y-109770750D01*
X173993361Y-109770750D02*
X173929552Y-109806464D01*
X173929552Y-109806464D02*
X173865742Y-109806464D01*
X173865742Y-109806464D02*
X173801933Y-109770750D01*
X173801933Y-109770750D02*
X173770028Y-109735035D01*
X173770028Y-109735035D02*
X173738123Y-109663607D01*
X173738123Y-109663607D02*
X173706219Y-109520750D01*
X173706219Y-109520750D02*
X173706219Y-109342178D01*
X173706219Y-109342178D02*
X173738123Y-109199321D01*
X173738123Y-109199321D02*
X173770028Y-109127892D01*
X173770028Y-109127892D02*
X173801933Y-109092178D01*
X173801933Y-109092178D02*
X173865742Y-109056464D01*
X174854790Y-109020750D02*
X174280504Y-109985035D01*
X175301457Y-109413607D02*
X175397171Y-109449321D01*
X175397171Y-109449321D02*
X175429076Y-109485035D01*
X175429076Y-109485035D02*
X175460980Y-109556464D01*
X175460980Y-109556464D02*
X175460980Y-109663607D01*
X175460980Y-109663607D02*
X175429076Y-109735035D01*
X175429076Y-109735035D02*
X175397171Y-109770750D01*
X175397171Y-109770750D02*
X175333361Y-109806464D01*
X175333361Y-109806464D02*
X175078123Y-109806464D01*
X175078123Y-109806464D02*
X175078123Y-109056464D01*
X175078123Y-109056464D02*
X175301457Y-109056464D01*
X175301457Y-109056464D02*
X175365266Y-109092178D01*
X175365266Y-109092178D02*
X175397171Y-109127892D01*
X175397171Y-109127892D02*
X175429076Y-109199321D01*
X175429076Y-109199321D02*
X175429076Y-109270750D01*
X175429076Y-109270750D02*
X175397171Y-109342178D01*
X175397171Y-109342178D02*
X175365266Y-109377892D01*
X175365266Y-109377892D02*
X175301457Y-109413607D01*
X175301457Y-109413607D02*
X175078123Y-109413607D01*
X176035266Y-109056464D02*
X175907647Y-109056464D01*
X175907647Y-109056464D02*
X175843838Y-109092178D01*
X175843838Y-109092178D02*
X175811933Y-109127892D01*
X175811933Y-109127892D02*
X175748123Y-109235035D01*
X175748123Y-109235035D02*
X175716219Y-109377892D01*
X175716219Y-109377892D02*
X175716219Y-109663607D01*
X175716219Y-109663607D02*
X175748123Y-109735035D01*
X175748123Y-109735035D02*
X175780028Y-109770750D01*
X175780028Y-109770750D02*
X175843838Y-109806464D01*
X175843838Y-109806464D02*
X175971457Y-109806464D01*
X175971457Y-109806464D02*
X176035266Y-109770750D01*
X176035266Y-109770750D02*
X176067171Y-109735035D01*
X176067171Y-109735035D02*
X176099076Y-109663607D01*
X176099076Y-109663607D02*
X176099076Y-109485035D01*
X176099076Y-109485035D02*
X176067171Y-109413607D01*
X176067171Y-109413607D02*
X176035266Y-109377892D01*
X176035266Y-109377892D02*
X175971457Y-109342178D01*
X175971457Y-109342178D02*
X175843838Y-109342178D01*
X175843838Y-109342178D02*
X175780028Y-109377892D01*
X175780028Y-109377892D02*
X175748123Y-109413607D01*
X175748123Y-109413607D02*
X175716219Y-109485035D01*
X173147886Y-94392178D02*
X173466933Y-94392178D01*
X173084076Y-94606464D02*
X173307409Y-93856464D01*
X173307409Y-93856464D02*
X173530743Y-94606464D01*
X173722172Y-93927892D02*
X173754076Y-93892178D01*
X173754076Y-93892178D02*
X173817886Y-93856464D01*
X173817886Y-93856464D02*
X173977410Y-93856464D01*
X173977410Y-93856464D02*
X174041219Y-93892178D01*
X174041219Y-93892178D02*
X174073124Y-93927892D01*
X174073124Y-93927892D02*
X174105029Y-93999321D01*
X174105029Y-93999321D02*
X174105029Y-94070750D01*
X174105029Y-94070750D02*
X174073124Y-94177892D01*
X174073124Y-94177892D02*
X173690267Y-94606464D01*
X173690267Y-94606464D02*
X174105029Y-94606464D01*
X174870743Y-93820750D02*
X174296457Y-94785035D01*
X175317410Y-94213607D02*
X175094076Y-94213607D01*
X175094076Y-94606464D02*
X175094076Y-93856464D01*
X175094076Y-93856464D02*
X175413124Y-93856464D01*
X175987410Y-93856464D02*
X175668362Y-93856464D01*
X175668362Y-93856464D02*
X175636458Y-94213607D01*
X175636458Y-94213607D02*
X175668362Y-94177892D01*
X175668362Y-94177892D02*
X175732172Y-94142178D01*
X175732172Y-94142178D02*
X175891696Y-94142178D01*
X175891696Y-94142178D02*
X175955505Y-94177892D01*
X175955505Y-94177892D02*
X175987410Y-94213607D01*
X175987410Y-94213607D02*
X176019315Y-94285035D01*
X176019315Y-94285035D02*
X176019315Y-94463607D01*
X176019315Y-94463607D02*
X175987410Y-94535035D01*
X175987410Y-94535035D02*
X175955505Y-94570750D01*
X175955505Y-94570750D02*
X175891696Y-94606464D01*
X175891696Y-94606464D02*
X175732172Y-94606464D01*
X175732172Y-94606464D02*
X175668362Y-94570750D01*
X175668362Y-94570750D02*
X175636458Y-94535035D01*
X183423124Y-86292178D02*
X183359314Y-86256464D01*
X183359314Y-86256464D02*
X183263600Y-86256464D01*
X183263600Y-86256464D02*
X183167886Y-86292178D01*
X183167886Y-86292178D02*
X183104076Y-86363607D01*
X183104076Y-86363607D02*
X183072171Y-86435035D01*
X183072171Y-86435035D02*
X183040267Y-86577892D01*
X183040267Y-86577892D02*
X183040267Y-86685035D01*
X183040267Y-86685035D02*
X183072171Y-86827892D01*
X183072171Y-86827892D02*
X183104076Y-86899321D01*
X183104076Y-86899321D02*
X183167886Y-86970750D01*
X183167886Y-86970750D02*
X183263600Y-87006464D01*
X183263600Y-87006464D02*
X183327409Y-87006464D01*
X183327409Y-87006464D02*
X183423124Y-86970750D01*
X183423124Y-86970750D02*
X183455028Y-86935035D01*
X183455028Y-86935035D02*
X183455028Y-86685035D01*
X183455028Y-86685035D02*
X183327409Y-86685035D01*
X183742171Y-87006464D02*
X183742171Y-86256464D01*
X183742171Y-86256464D02*
X184125028Y-87006464D01*
X184125028Y-87006464D02*
X184125028Y-86256464D01*
X184444076Y-87006464D02*
X184444076Y-86256464D01*
X184444076Y-86256464D02*
X184603600Y-86256464D01*
X184603600Y-86256464D02*
X184699314Y-86292178D01*
X184699314Y-86292178D02*
X184763124Y-86363607D01*
X184763124Y-86363607D02*
X184795029Y-86435035D01*
X184795029Y-86435035D02*
X184826933Y-86577892D01*
X184826933Y-86577892D02*
X184826933Y-86685035D01*
X184826933Y-86685035D02*
X184795029Y-86827892D01*
X184795029Y-86827892D02*
X184763124Y-86899321D01*
X184763124Y-86899321D02*
X184699314Y-86970750D01*
X184699314Y-86970750D02*
X184603600Y-87006464D01*
X184603600Y-87006464D02*
X184444076Y-87006464D01*
X182519076Y-96956464D02*
X182519076Y-96206464D01*
X182519076Y-96206464D02*
X182678600Y-96206464D01*
X182678600Y-96206464D02*
X182774314Y-96242178D01*
X182774314Y-96242178D02*
X182838124Y-96313607D01*
X182838124Y-96313607D02*
X182870029Y-96385035D01*
X182870029Y-96385035D02*
X182901933Y-96527892D01*
X182901933Y-96527892D02*
X182901933Y-96635035D01*
X182901933Y-96635035D02*
X182870029Y-96777892D01*
X182870029Y-96777892D02*
X182838124Y-96849321D01*
X182838124Y-96849321D02*
X182774314Y-96920750D01*
X182774314Y-96920750D02*
X182678600Y-96956464D01*
X182678600Y-96956464D02*
X182519076Y-96956464D01*
X183476219Y-96456464D02*
X183476219Y-96956464D01*
X183316695Y-96170750D02*
X183157172Y-96706464D01*
X183157172Y-96706464D02*
X183571933Y-96706464D01*
X184305743Y-96170750D02*
X183731457Y-97135035D01*
X184816219Y-96456464D02*
X184816219Y-96956464D01*
X184656695Y-96170750D02*
X184497172Y-96706464D01*
X184497172Y-96706464D02*
X184911933Y-96706464D01*
X182742410Y-109263607D02*
X182838124Y-109299321D01*
X182838124Y-109299321D02*
X182870029Y-109335035D01*
X182870029Y-109335035D02*
X182901933Y-109406464D01*
X182901933Y-109406464D02*
X182901933Y-109513607D01*
X182901933Y-109513607D02*
X182870029Y-109585035D01*
X182870029Y-109585035D02*
X182838124Y-109620750D01*
X182838124Y-109620750D02*
X182774314Y-109656464D01*
X182774314Y-109656464D02*
X182519076Y-109656464D01*
X182519076Y-109656464D02*
X182519076Y-108906464D01*
X182519076Y-108906464D02*
X182742410Y-108906464D01*
X182742410Y-108906464D02*
X182806219Y-108942178D01*
X182806219Y-108942178D02*
X182838124Y-108977892D01*
X182838124Y-108977892D02*
X182870029Y-109049321D01*
X182870029Y-109049321D02*
X182870029Y-109120750D01*
X182870029Y-109120750D02*
X182838124Y-109192178D01*
X182838124Y-109192178D02*
X182806219Y-109227892D01*
X182806219Y-109227892D02*
X182742410Y-109263607D01*
X182742410Y-109263607D02*
X182519076Y-109263607D01*
X183508124Y-108906464D02*
X183189076Y-108906464D01*
X183189076Y-108906464D02*
X183157172Y-109263607D01*
X183157172Y-109263607D02*
X183189076Y-109227892D01*
X183189076Y-109227892D02*
X183252886Y-109192178D01*
X183252886Y-109192178D02*
X183412410Y-109192178D01*
X183412410Y-109192178D02*
X183476219Y-109227892D01*
X183476219Y-109227892D02*
X183508124Y-109263607D01*
X183508124Y-109263607D02*
X183540029Y-109335035D01*
X183540029Y-109335035D02*
X183540029Y-109513607D01*
X183540029Y-109513607D02*
X183508124Y-109585035D01*
X183508124Y-109585035D02*
X183476219Y-109620750D01*
X183476219Y-109620750D02*
X183412410Y-109656464D01*
X183412410Y-109656464D02*
X183252886Y-109656464D01*
X183252886Y-109656464D02*
X183189076Y-109620750D01*
X183189076Y-109620750D02*
X183157172Y-109585035D01*
X184305743Y-108870750D02*
X183731457Y-109835035D01*
X184560981Y-109656464D02*
X184688600Y-109656464D01*
X184688600Y-109656464D02*
X184752410Y-109620750D01*
X184752410Y-109620750D02*
X184784314Y-109585035D01*
X184784314Y-109585035D02*
X184848124Y-109477892D01*
X184848124Y-109477892D02*
X184880029Y-109335035D01*
X184880029Y-109335035D02*
X184880029Y-109049321D01*
X184880029Y-109049321D02*
X184848124Y-108977892D01*
X184848124Y-108977892D02*
X184816219Y-108942178D01*
X184816219Y-108942178D02*
X184752410Y-108906464D01*
X184752410Y-108906464D02*
X184624791Y-108906464D01*
X184624791Y-108906464D02*
X184560981Y-108942178D01*
X184560981Y-108942178D02*
X184529076Y-108977892D01*
X184529076Y-108977892D02*
X184497172Y-109049321D01*
X184497172Y-109049321D02*
X184497172Y-109227892D01*
X184497172Y-109227892D02*
X184529076Y-109299321D01*
X184529076Y-109299321D02*
X184560981Y-109335035D01*
X184560981Y-109335035D02*
X184624791Y-109370750D01*
X184624791Y-109370750D02*
X184752410Y-109370750D01*
X184752410Y-109370750D02*
X184816219Y-109335035D01*
X184816219Y-109335035D02*
X184848124Y-109299321D01*
X184848124Y-109299321D02*
X184880029Y-109227892D01*
D12*
X172223419Y-118438381D02*
X171747228Y-118771714D01*
X172223419Y-119009809D02*
X171223419Y-119009809D01*
X171223419Y-119009809D02*
X171223419Y-118628857D01*
X171223419Y-118628857D02*
X171271038Y-118533619D01*
X171271038Y-118533619D02*
X171318657Y-118486000D01*
X171318657Y-118486000D02*
X171413895Y-118438381D01*
X171413895Y-118438381D02*
X171556752Y-118438381D01*
X171556752Y-118438381D02*
X171651990Y-118486000D01*
X171651990Y-118486000D02*
X171699609Y-118533619D01*
X171699609Y-118533619D02*
X171747228Y-118628857D01*
X171747228Y-118628857D02*
X171747228Y-119009809D01*
X171699609Y-118009809D02*
X171699609Y-117676476D01*
X172223419Y-117533619D02*
X172223419Y-118009809D01*
X172223419Y-118009809D02*
X171223419Y-118009809D01*
X171223419Y-118009809D02*
X171223419Y-117533619D01*
X172175800Y-117152666D02*
X172223419Y-117009809D01*
X172223419Y-117009809D02*
X172223419Y-116771714D01*
X172223419Y-116771714D02*
X172175800Y-116676476D01*
X172175800Y-116676476D02*
X172128180Y-116628857D01*
X172128180Y-116628857D02*
X172032942Y-116581238D01*
X172032942Y-116581238D02*
X171937704Y-116581238D01*
X171937704Y-116581238D02*
X171842466Y-116628857D01*
X171842466Y-116628857D02*
X171794847Y-116676476D01*
X171794847Y-116676476D02*
X171747228Y-116771714D01*
X171747228Y-116771714D02*
X171699609Y-116962190D01*
X171699609Y-116962190D02*
X171651990Y-117057428D01*
X171651990Y-117057428D02*
X171604371Y-117105047D01*
X171604371Y-117105047D02*
X171509133Y-117152666D01*
X171509133Y-117152666D02*
X171413895Y-117152666D01*
X171413895Y-117152666D02*
X171318657Y-117105047D01*
X171318657Y-117105047D02*
X171271038Y-117057428D01*
X171271038Y-117057428D02*
X171223419Y-116962190D01*
X171223419Y-116962190D02*
X171223419Y-116724095D01*
X171223419Y-116724095D02*
X171271038Y-116581238D01*
X171699609Y-116152666D02*
X171699609Y-115819333D01*
X172223419Y-115676476D02*
X172223419Y-116152666D01*
X172223419Y-116152666D02*
X171223419Y-116152666D01*
X171223419Y-116152666D02*
X171223419Y-115676476D01*
X171223419Y-115390761D02*
X171223419Y-114819333D01*
X172223419Y-115105047D02*
X171223419Y-115105047D01*
X179703419Y-119207904D02*
X179703419Y-118636476D01*
X180703419Y-118922190D02*
X179703419Y-118922190D01*
X180703419Y-117731714D02*
X180227228Y-118065047D01*
X180703419Y-118303142D02*
X179703419Y-118303142D01*
X179703419Y-118303142D02*
X179703419Y-117922190D01*
X179703419Y-117922190D02*
X179751038Y-117826952D01*
X179751038Y-117826952D02*
X179798657Y-117779333D01*
X179798657Y-117779333D02*
X179893895Y-117731714D01*
X179893895Y-117731714D02*
X180036752Y-117731714D01*
X180036752Y-117731714D02*
X180131990Y-117779333D01*
X180131990Y-117779333D02*
X180179609Y-117826952D01*
X180179609Y-117826952D02*
X180227228Y-117922190D01*
X180227228Y-117922190D02*
X180227228Y-118303142D01*
X180703419Y-116731714D02*
X180227228Y-117065047D01*
X180703419Y-117303142D02*
X179703419Y-117303142D01*
X179703419Y-117303142D02*
X179703419Y-116922190D01*
X179703419Y-116922190D02*
X179751038Y-116826952D01*
X179751038Y-116826952D02*
X179798657Y-116779333D01*
X179798657Y-116779333D02*
X179893895Y-116731714D01*
X179893895Y-116731714D02*
X180036752Y-116731714D01*
X180036752Y-116731714D02*
X180131990Y-116779333D01*
X180131990Y-116779333D02*
X180179609Y-116826952D01*
X180179609Y-116826952D02*
X180227228Y-116922190D01*
X180227228Y-116922190D02*
X180227228Y-117303142D01*
X180655800Y-116350761D02*
X180703419Y-116207904D01*
X180703419Y-116207904D02*
X180703419Y-115969809D01*
X180703419Y-115969809D02*
X180655800Y-115874571D01*
X180655800Y-115874571D02*
X180608180Y-115826952D01*
X180608180Y-115826952D02*
X180512942Y-115779333D01*
X180512942Y-115779333D02*
X180417704Y-115779333D01*
X180417704Y-115779333D02*
X180322466Y-115826952D01*
X180322466Y-115826952D02*
X180274847Y-115874571D01*
X180274847Y-115874571D02*
X180227228Y-115969809D01*
X180227228Y-115969809D02*
X180179609Y-116160285D01*
X180179609Y-116160285D02*
X180131990Y-116255523D01*
X180131990Y-116255523D02*
X180084371Y-116303142D01*
X180084371Y-116303142D02*
X179989133Y-116350761D01*
X179989133Y-116350761D02*
X179893895Y-116350761D01*
X179893895Y-116350761D02*
X179798657Y-116303142D01*
X179798657Y-116303142D02*
X179751038Y-116255523D01*
X179751038Y-116255523D02*
X179703419Y-116160285D01*
X179703419Y-116160285D02*
X179703419Y-115922190D01*
X179703419Y-115922190D02*
X179751038Y-115779333D01*
X170078600Y-77716000D02*
X170078600Y-78716000D01*
X170078600Y-77716000D02*
X171078600Y-77716000D01*
X170078600Y-109716000D02*
X170078600Y-110766000D01*
X170078600Y-110766000D02*
X171078600Y-110766000D01*
X175228600Y-74816000D02*
X175228600Y-76116000D01*
X175228600Y-76116000D02*
X182728600Y-76116000D01*
X178478600Y-75166000D02*
X179478600Y-75166000D01*
X178628600Y-75316000D02*
X179328600Y-75316000D01*
X178728600Y-75466000D02*
X179228600Y-75466000D01*
X178828600Y-75616000D02*
X179128600Y-75616000D01*
X178978600Y-75816000D02*
X178478600Y-75166000D01*
X179478600Y-75166000D02*
X178978600Y-75816000D01*
X182728600Y-74816000D02*
X175228600Y-74816000D01*
X182728600Y-76116000D02*
X182728600Y-74816000D01*
X187878600Y-77716000D02*
X186928600Y-77716000D01*
X187878600Y-77716000D02*
X187878600Y-78716000D01*
X187878600Y-109766000D02*
X187878600Y-110766000D01*
X187878600Y-110766000D02*
X186868600Y-110766000D01*
X169898600Y-119756000D02*
X170148600Y-119756000D01*
X169898600Y-119756000D02*
X169898600Y-113756000D01*
X173398600Y-119756000D02*
X173148600Y-119756000D01*
X173398600Y-119756000D02*
X173398600Y-113756000D01*
X169898600Y-113756000D02*
X170148600Y-113756000D01*
X173398600Y-113756000D02*
X173148600Y-113756000D01*
X186698600Y-115196000D02*
X186698600Y-121196000D01*
X174698600Y-115196000D02*
X186698600Y-115196000D01*
X186698600Y-121196000D02*
X174698600Y-121196000D01*
X174698600Y-121196000D02*
X174698600Y-115196000D01*
D14*
X186590000Y-81538000D03*
X186590000Y-89158000D03*
X186590000Y-91698000D03*
X186590000Y-94238000D03*
X186590000Y-96778000D03*
X186590000Y-99318000D03*
X186590000Y-101858000D03*
X186590000Y-104398000D03*
X186590000Y-106938000D03*
X186590000Y-109478000D03*
X171370000Y-109478000D03*
X171370000Y-106938000D03*
X171370000Y-104398000D03*
X171370000Y-101858000D03*
X171370000Y-99318000D03*
X171370000Y-96778000D03*
X171370000Y-94238000D03*
X171370000Y-91698000D03*
X171370000Y-89158000D03*
X171370000Y-86618000D03*
X171370000Y-84078000D03*
X171370000Y-81538000D03*
D15*
X171648600Y-113506000D03*
X171648600Y-120006000D03*
D16*
X185198600Y-116446000D03*
X178198600Y-116446000D03*
X185198600Y-118196000D03*
X178198600Y-118196000D03*
D17*
X174898600Y-116096000D03*
X174898600Y-118546000D03*
X183398600Y-114346000D03*
X183398600Y-120296000D03*
X180398600Y-114346000D03*
X180398600Y-120296000D03*
X176398600Y-114346000D03*
X176398600Y-120296000D03*
%LPC*%
D18*
X83178600Y-81886000D03*
D19*
X83458600Y-77686000D03*
D20*
X88678600Y-81886000D03*
D19*
X93898600Y-77686000D03*
D18*
X94178600Y-81886000D03*
D21*
X88678600Y-87786000D03*
X83678600Y-85686000D03*
X93678600Y-85686000D03*
D18*
X101178600Y-69656000D03*
D19*
X101458600Y-65456000D03*
D20*
X106678600Y-69656000D03*
D19*
X111898600Y-65456000D03*
D18*
X112178600Y-69656000D03*
D21*
X106678600Y-75556000D03*
X101678600Y-73456000D03*
X111678600Y-73456000D03*
D18*
X119178600Y-62846000D03*
D19*
X119458600Y-58646000D03*
D20*
X124678600Y-62846000D03*
D19*
X129898600Y-58646000D03*
D18*
X130178600Y-62846000D03*
D21*
X124678600Y-68746000D03*
X119678600Y-66646000D03*
X129678600Y-66646000D03*
D18*
X137178600Y-68456000D03*
D19*
X137458600Y-64256000D03*
D20*
X142678600Y-68456000D03*
D19*
X147898600Y-64256000D03*
D18*
X148178600Y-68456000D03*
D21*
X142678600Y-74356000D03*
X137678600Y-72256000D03*
X147678600Y-72256000D03*
D18*
X155178600Y-70836000D03*
D19*
X155458600Y-66636000D03*
D20*
X160678600Y-70836000D03*
D19*
X165898600Y-66636000D03*
D18*
X166178600Y-70836000D03*
D21*
X160678600Y-76736000D03*
X155678600Y-74636000D03*
X165678600Y-74636000D03*
D18*
X83178600Y-98886000D03*
D19*
X83458600Y-94686000D03*
D20*
X88678600Y-98886000D03*
D19*
X93898600Y-94686000D03*
D18*
X94178600Y-98886000D03*
D21*
X88678600Y-104786000D03*
X83678600Y-102686000D03*
X93678600Y-102686000D03*
D18*
X101178600Y-86656000D03*
D19*
X101458600Y-82456000D03*
D20*
X106678600Y-86656000D03*
D19*
X111898600Y-82456000D03*
D18*
X112178600Y-86656000D03*
D21*
X106678600Y-92556000D03*
X101678600Y-90456000D03*
X111678600Y-90456000D03*
D18*
X119178600Y-79836000D03*
D19*
X119458600Y-75636000D03*
D20*
X124678600Y-79836000D03*
D19*
X129898600Y-75636000D03*
D18*
X130178600Y-79836000D03*
D21*
X124678600Y-85736000D03*
X119678600Y-83636000D03*
X129678600Y-83636000D03*
D18*
X137178600Y-85456000D03*
D19*
X137458600Y-81256000D03*
D20*
X142678600Y-85456000D03*
D19*
X147898600Y-81256000D03*
D18*
X148178600Y-85456000D03*
D21*
X142678600Y-91356000D03*
X137678600Y-89256000D03*
X147678600Y-89256000D03*
D18*
X155178600Y-87836000D03*
D19*
X155458600Y-83636000D03*
D20*
X160678600Y-87836000D03*
D19*
X165898600Y-83636000D03*
D18*
X166178600Y-87836000D03*
D21*
X160678600Y-93736000D03*
X155678600Y-91636000D03*
X165678600Y-91636000D03*
D18*
X83178600Y-115891000D03*
D19*
X83458600Y-111691000D03*
D20*
X88678600Y-115891000D03*
D19*
X93898600Y-111691000D03*
D18*
X94178600Y-115891000D03*
D21*
X88678600Y-121791000D03*
X83678600Y-119691000D03*
X93678600Y-119691000D03*
D18*
X101178600Y-103661000D03*
D19*
X101458600Y-99461000D03*
D20*
X106678600Y-103661000D03*
D19*
X111898600Y-99461000D03*
D18*
X112178600Y-103661000D03*
D21*
X106678600Y-109561000D03*
X101678600Y-107461000D03*
X111678600Y-107461000D03*
D18*
X119178600Y-96836000D03*
D19*
X119458600Y-92636000D03*
D20*
X124678600Y-96836000D03*
D19*
X129898600Y-92636000D03*
D18*
X130178600Y-96836000D03*
D21*
X124678600Y-102736000D03*
X119678600Y-100636000D03*
X129678600Y-100636000D03*
D18*
X137178600Y-102461000D03*
D19*
X137458600Y-98261000D03*
D20*
X142678600Y-102461000D03*
D19*
X147898600Y-98261000D03*
D18*
X148178600Y-102461000D03*
D21*
X142678600Y-108361000D03*
X137678600Y-106261000D03*
X147678600Y-106261000D03*
D18*
X155178600Y-104836000D03*
D19*
X155458600Y-100636000D03*
D20*
X160678600Y-104836000D03*
D19*
X165898600Y-100636000D03*
D18*
X166178600Y-104836000D03*
D21*
X160678600Y-110736000D03*
X155678600Y-108636000D03*
X165678600Y-108636000D03*
D22*
X186590000Y-81538000D03*
X186590000Y-84078000D03*
X186590000Y-86618000D03*
X186590000Y-89158000D03*
X186590000Y-91698000D03*
X186590000Y-94238000D03*
X186590000Y-96778000D03*
X186590000Y-99318000D03*
X186590000Y-101858000D03*
X186590000Y-104398000D03*
X186590000Y-106938000D03*
X186590000Y-109478000D03*
X171370000Y-109478000D03*
X171370000Y-106938000D03*
X171370000Y-104398000D03*
X171370000Y-101858000D03*
X171370000Y-99318000D03*
X171370000Y-96778000D03*
X171370000Y-94238000D03*
X171370000Y-91698000D03*
X171370000Y-89158000D03*
X171370000Y-86618000D03*
X171370000Y-84078000D03*
X171370000Y-81538000D03*
D23*
X171648600Y-113506000D03*
X171648600Y-120006000D03*
D24*
X185198600Y-116446000D03*
X178198600Y-116446000D03*
X185198600Y-118196000D03*
X178198600Y-118196000D03*
D25*
X174898600Y-116096000D03*
X174898600Y-118546000D03*
X183398600Y-114346000D03*
X183398600Y-120296000D03*
X180398600Y-114346000D03*
X180398600Y-120296000D03*
X176398600Y-114346000D03*
X176398600Y-120296000D03*
D18*
X147306008Y-121462495D03*
D19*
X146489427Y-125591853D03*
D20*
X152618600Y-122886000D03*
D19*
X156573693Y-128293924D03*
D18*
X157931192Y-124309505D03*
D21*
X154145632Y-117187038D03*
X148772483Y-117921387D03*
X158431742Y-120509577D03*
D18*
X166415460Y-127846000D03*
D19*
X164557947Y-131623307D03*
D20*
X171178600Y-130596000D03*
D19*
X173599253Y-136843307D03*
D18*
X175941740Y-133346000D03*
D21*
X174128600Y-125486450D03*
X168748473Y-124805103D03*
X177408727Y-129805103D03*
%LPD*%
M02*
