G04 #@! TF.GenerationSoftware,KiCad,Pcbnew,7.0.7*
G04 #@! TF.CreationDate,2023-09-27T19:23:01+01:00*
G04 #@! TF.ProjectId,ferris-sweep-compact,66657272-6973-42d7-9377-6565702d636f,0.1*
G04 #@! TF.SameCoordinates,Original*
G04 #@! TF.FileFunction,Profile,NP*
%FSLAX46Y46*%
G04 Gerber Fmt 4.6, Leading zero omitted, Abs format (unit mm)*
G04 Created by KiCad (PCBNEW 7.0.7) date 2023-09-27 19:23:01*
%MOMM*%
%LPD*%
G01*
G04 APERTURE LIST*
G04 #@! TA.AperFunction,Profile*
%ADD10C,0.150000*%
G04 #@! TD*
G04 APERTURE END LIST*
D10*
X79705200Y-76809600D02*
X79705200Y-120015000D01*
X176123600Y-140055600D02*
X175611606Y-140940182D01*
X173228000Y-141605000D02*
X171678600Y-140716000D01*
X188950600Y-79552800D02*
X188950600Y-78587600D01*
X186715400Y-77698600D02*
X187843639Y-77716668D01*
X151866600Y-62484000D02*
X151866071Y-61766483D01*
X148412200Y-59944000D02*
X149885400Y-59944000D01*
X133578600Y-57302400D02*
X133601198Y-56285656D01*
X129819400Y-54356000D02*
X131724400Y-54356000D01*
X117652800Y-54381400D02*
X119684800Y-54356000D01*
X115799093Y-56160786D02*
X115773200Y-57607200D01*
X98018600Y-64643000D02*
X97991129Y-63034251D01*
X100279200Y-60960000D02*
X102641400Y-60960000D01*
X82194400Y-73152000D02*
X83540600Y-73152000D01*
X82147976Y-124458826D02*
X83743800Y-124460000D01*
X79705200Y-120015000D02*
X79730600Y-122072400D01*
X141808200Y-128778000D02*
X125577600Y-124485400D01*
X79705200Y-76809600D02*
X79733413Y-75710183D01*
X187096400Y-113944400D02*
X188950600Y-112420400D01*
X187096400Y-113944400D02*
X187071000Y-121208800D01*
X169684079Y-64202368D02*
X169646600Y-66319400D01*
X167843200Y-62484000D02*
X166827200Y-62484000D01*
X82194400Y-73152002D02*
G75*
G03*
X79733414Y-75710183I-25400J-2438398D01*
G01*
X148412200Y-59944000D02*
X133578600Y-59944000D01*
X115773200Y-57607200D02*
X115798600Y-60960000D01*
X83743800Y-124460000D02*
X125577600Y-124485400D01*
X166827200Y-62484000D02*
X151866600Y-62484000D01*
X98018600Y-64643000D02*
X98018600Y-73152000D01*
X186715400Y-77698600D02*
X169646600Y-77724000D01*
X117652800Y-54381402D02*
G75*
G03*
X115799094Y-56160786I-25400J-1828798D01*
G01*
X115798600Y-60960000D02*
X102641400Y-60960000D01*
X133601244Y-56285656D02*
G75*
G03*
X131724400Y-54356000I-1930444J-44D01*
G01*
X169646600Y-77724000D02*
X169646600Y-66319400D01*
X188950600Y-112420400D02*
X188950600Y-79552800D01*
X158978600Y-133604000D02*
X171678600Y-140716000D01*
X188950600Y-78587600D02*
G75*
G03*
X187843639Y-77716669I-1016000J-152400D01*
G01*
X129819400Y-54356000D02*
X119684800Y-54356000D01*
X151866119Y-61766483D02*
G75*
G03*
X149885400Y-59944000I-1828819J-17D01*
G01*
X133578600Y-59944000D02*
X133578600Y-57302400D01*
X98018600Y-73152000D02*
X83540600Y-73152000D01*
X176123600Y-140055600D02*
X187071000Y-121208800D01*
X79730601Y-122072400D02*
G75*
G03*
X82147976Y-124458826I2311399J-76200D01*
G01*
X141808200Y-128778000D02*
X158978600Y-133604000D01*
X173228000Y-141605000D02*
G75*
G03*
X175611606Y-140940182I838200J1600200D01*
G01*
X100279200Y-60960000D02*
G75*
G03*
X97991129Y-63034251I-127000J-2159000D01*
G01*
X169684080Y-64202368D02*
G75*
G03*
X167843200Y-62484001I-1768680J-49532D01*
G01*
M02*
